G04 #@! TF.GenerationSoftware,KiCad,Pcbnew,9.0.2*
G04 #@! TF.CreationDate,2026-05-27T12:07:38+02:00*
G04 #@! TF.ProjectId,interface,696e7465-7266-4616-9365-2e6b69636164,rev?*
G04 #@! TF.SameCoordinates,Original*
G04 #@! TF.FileFunction,Copper,L1,Top*
G04 #@! TF.FilePolarity,Positive*
%FSLAX46Y46*%
G04 Gerber Fmt 4.6, Leading zero omitted, Abs format (unit mm)*
G04 Created by KiCad (PCBNEW 9.0.2) date 2026-05-27 12:07:38*
%MOMM*%
%LPD*%
G01*
G04 APERTURE LIST*
G04 Aperture macros list*
%AMRoundRect*
0 Rectangle with rounded corners*
0 $1 Rounding radius*
0 $2 $3 $4 $5 $6 $7 $8 $9 X,Y pos of 4 corners*
0 Add a 4 corners polygon primitive as box body*
4,1,4,$2,$3,$4,$5,$6,$7,$8,$9,$2,$3,0*
0 Add four circle primitives for the rounded corners*
1,1,$1+$1,$2,$3*
1,1,$1+$1,$4,$5*
1,1,$1+$1,$6,$7*
1,1,$1+$1,$8,$9*
0 Add four rect primitives between the rounded corners*
20,1,$1+$1,$2,$3,$4,$5,0*
20,1,$1+$1,$4,$5,$6,$7,0*
20,1,$1+$1,$6,$7,$8,$9,0*
20,1,$1+$1,$8,$9,$2,$3,0*%
G04 Aperture macros list end*
%ADD10C,0.300000*%
G04 #@! TA.AperFunction,ComponentPad*
%ADD11R,2.500000X2.000000*%
G04 #@! TD*
G04 #@! TA.AperFunction,ComponentPad*
%ADD12O,2.500000X2.000000*%
G04 #@! TD*
G04 #@! TA.AperFunction,ComponentPad*
%ADD13O,1.800000X2.200000*%
G04 #@! TD*
G04 #@! TA.AperFunction,ComponentPad*
%ADD14R,1.800000X2.200000*%
G04 #@! TD*
G04 #@! TA.AperFunction,ComponentPad*
%ADD15O,1.600000X2.400000*%
G04 #@! TD*
G04 #@! TA.AperFunction,ComponentPad*
%ADD16RoundRect,0.250000X-0.550000X0.950000X-0.550000X-0.950000X0.550000X-0.950000X0.550000X0.950000X0*%
G04 #@! TD*
G04 #@! TA.AperFunction,Conductor*
%ADD17C,1.000000*%
G04 #@! TD*
G04 APERTURE END LIST*
D10*
G36*
X135935715Y-78064962D02*
G01*
X135935715Y-78736694D01*
X135907448Y-78750828D01*
X135692553Y-78750828D01*
X135603139Y-78706121D01*
X135566134Y-78669116D01*
X135521429Y-78579704D01*
X135521429Y-78221951D01*
X135566134Y-78132540D01*
X135603139Y-78095535D01*
X135692553Y-78050828D01*
X135907447Y-78050828D01*
X135935715Y-78064962D01*
G37*
G36*
X137259626Y-78084060D02*
G01*
X137285801Y-78136411D01*
X136878572Y-78217857D01*
X136878572Y-78150523D01*
X136911803Y-78084060D01*
X136978268Y-78050828D01*
X137193162Y-78050828D01*
X137259626Y-78084060D01*
G37*
G36*
X141221429Y-78736694D02*
G01*
X141193162Y-78750828D01*
X140906838Y-78750828D01*
X140840375Y-78717597D01*
X140807143Y-78651133D01*
X140807143Y-78579094D01*
X140840374Y-78512631D01*
X140906838Y-78479400D01*
X141221429Y-78479400D01*
X141221429Y-78736694D01*
G37*
G36*
X145221429Y-78736694D02*
G01*
X145193162Y-78750828D01*
X144906838Y-78750828D01*
X144840375Y-78717597D01*
X144807143Y-78651133D01*
X144807143Y-78579094D01*
X144840374Y-78512631D01*
X144906838Y-78479400D01*
X145221429Y-78479400D01*
X145221429Y-78736694D01*
G37*
G36*
X135221428Y-76321778D02*
G01*
X135193161Y-76335912D01*
X134906837Y-76335912D01*
X134840374Y-76302681D01*
X134807142Y-76236217D01*
X134807142Y-76164178D01*
X134840373Y-76097715D01*
X134906837Y-76064484D01*
X135221428Y-76064484D01*
X135221428Y-76321778D01*
G37*
G36*
X141792857Y-76321778D02*
G01*
X141764590Y-76335912D01*
X141478266Y-76335912D01*
X141411803Y-76302681D01*
X141378571Y-76236217D01*
X141378571Y-76164178D01*
X141411802Y-76097715D01*
X141478266Y-76064484D01*
X141792857Y-76064484D01*
X141792857Y-76321778D01*
G37*
G36*
X145854004Y-75680619D02*
G01*
X145891008Y-75717623D01*
X145935714Y-75807035D01*
X145935714Y-76164788D01*
X145891007Y-76254201D01*
X145854002Y-76291206D01*
X145764590Y-76335912D01*
X145621124Y-76335912D01*
X145531710Y-76291205D01*
X145494705Y-76254200D01*
X145450000Y-76164788D01*
X145450000Y-75807035D01*
X145494705Y-75717624D01*
X145531710Y-75680619D01*
X145621124Y-75635912D01*
X145764590Y-75635912D01*
X145854004Y-75680619D01*
G37*
G36*
X130663315Y-75907341D02*
G01*
X130365256Y-75907341D01*
X130514285Y-75460253D01*
X130663315Y-75907341D01*
G37*
G36*
X147688096Y-79217495D02*
G01*
X129698796Y-79217495D01*
X129698796Y-77400828D01*
X130721428Y-77400828D01*
X130721428Y-78900828D01*
X130724310Y-78930092D01*
X130746708Y-78984164D01*
X130788092Y-79025548D01*
X130842164Y-79047946D01*
X130900692Y-79047946D01*
X130954764Y-79025548D01*
X130996148Y-78984164D01*
X131018546Y-78930092D01*
X131021428Y-78900828D01*
X131021428Y-77400828D01*
X131435714Y-77400828D01*
X131435714Y-78615114D01*
X131438596Y-78644378D01*
X131440659Y-78649358D01*
X131441041Y-78654733D01*
X131451550Y-78682196D01*
X131522979Y-78825053D01*
X131530906Y-78837646D01*
X131532422Y-78841306D01*
X131535803Y-78845425D01*
X131538644Y-78849939D01*
X131541637Y-78852535D01*
X131551077Y-78864037D01*
X131622506Y-78935466D01*
X131634010Y-78944907D01*
X131636605Y-78947899D01*
X131641114Y-78950737D01*
X131645237Y-78954121D01*
X131648898Y-78955637D01*
X131661490Y-78963564D01*
X131804348Y-79034992D01*
X131831811Y-79045502D01*
X131837186Y-79045883D01*
X131842165Y-79047946D01*
X131871429Y-79050828D01*
X132157143Y-79050828D01*
X132186407Y-79047946D01*
X132191385Y-79045883D01*
X132196761Y-79045502D01*
X132224225Y-79034992D01*
X132367082Y-78963564D01*
X132379675Y-78955636D01*
X132383335Y-78954121D01*
X132387454Y-78950739D01*
X132391968Y-78947899D01*
X132394564Y-78944905D01*
X132406066Y-78935466D01*
X132477495Y-78864037D01*
X132486936Y-78852532D01*
X132489928Y-78849938D01*
X132492766Y-78845428D01*
X132496150Y-78841306D01*
X132497666Y-78837644D01*
X132505593Y-78825053D01*
X132577021Y-78682195D01*
X132587531Y-78654732D01*
X132587912Y-78649356D01*
X132589975Y-78644378D01*
X132592857Y-78615114D01*
X132592857Y-77400828D01*
X132589975Y-77371564D01*
X132795740Y-77371564D01*
X132795740Y-77430092D01*
X132818138Y-77484164D01*
X132859522Y-77525548D01*
X132913594Y-77547946D01*
X132942858Y-77550828D01*
X133221429Y-77550828D01*
X133221429Y-78900828D01*
X133224311Y-78930092D01*
X133246709Y-78984164D01*
X133288093Y-79025548D01*
X133342165Y-79047946D01*
X133400693Y-79047946D01*
X133454765Y-79025548D01*
X133496149Y-78984164D01*
X133518547Y-78930092D01*
X133521429Y-78900828D01*
X133521429Y-78186542D01*
X135221429Y-78186542D01*
X135221429Y-78615114D01*
X135224311Y-78644378D01*
X135226373Y-78649356D01*
X135226755Y-78654732D01*
X135237265Y-78682196D01*
X135308693Y-78825053D01*
X135316620Y-78837646D01*
X135318136Y-78841306D01*
X135321517Y-78845425D01*
X135324358Y-78849939D01*
X135327351Y-78852535D01*
X135336791Y-78864037D01*
X135408220Y-78935466D01*
X135419724Y-78944907D01*
X135422319Y-78947899D01*
X135426828Y-78950737D01*
X135430951Y-78954121D01*
X135434612Y-78955637D01*
X135447204Y-78963564D01*
X135590062Y-79034992D01*
X135617525Y-79045502D01*
X135622900Y-79045883D01*
X135627879Y-79047946D01*
X135657143Y-79050828D01*
X135942857Y-79050828D01*
X135972121Y-79047946D01*
X135977099Y-79045883D01*
X135982475Y-79045502D01*
X136009938Y-79034992D01*
X136016843Y-79031539D01*
X136056451Y-79047946D01*
X136114979Y-79047946D01*
X136169051Y-79025548D01*
X136210435Y-78984164D01*
X136232833Y-78930092D01*
X136235715Y-78900828D01*
X136235715Y-78115114D01*
X136578572Y-78115114D01*
X136578572Y-78686542D01*
X136581454Y-78715806D01*
X136583516Y-78720784D01*
X136583898Y-78726160D01*
X136594408Y-78753623D01*
X136665836Y-78896482D01*
X136668915Y-78901374D01*
X136669686Y-78903685D01*
X136672181Y-78906562D01*
X136681501Y-78921367D01*
X136695707Y-78933688D01*
X136708033Y-78947900D01*
X136722837Y-78957218D01*
X136725715Y-78959714D01*
X136728026Y-78960484D01*
X136732919Y-78963564D01*
X136875777Y-79034993D01*
X136903240Y-79045502D01*
X136908615Y-79045883D01*
X136913594Y-79047946D01*
X136942858Y-79050828D01*
X137228572Y-79050828D01*
X137257836Y-79047946D01*
X137262814Y-79045883D01*
X137268190Y-79045502D01*
X137295654Y-79034992D01*
X137438511Y-78963564D01*
X137463397Y-78947899D01*
X137501743Y-78903684D01*
X137520251Y-78848162D01*
X137516103Y-78789782D01*
X137489929Y-78737433D01*
X137445714Y-78699086D01*
X137390191Y-78680578D01*
X137331811Y-78684726D01*
X137304348Y-78695236D01*
X137193162Y-78750828D01*
X136978267Y-78750828D01*
X136911804Y-78717597D01*
X136878572Y-78651133D01*
X136878572Y-78523798D01*
X137472121Y-78405089D01*
X137472122Y-78405089D01*
X137472122Y-78405088D01*
X137472276Y-78405058D01*
X137500406Y-78396493D01*
X137512617Y-78388314D01*
X137526194Y-78382691D01*
X137536695Y-78372189D01*
X137549036Y-78363925D01*
X137557188Y-78351697D01*
X137567578Y-78341307D01*
X137573260Y-78327587D01*
X137581500Y-78315229D01*
X137584352Y-78300811D01*
X137589976Y-78287235D01*
X137592858Y-78257971D01*
X137592858Y-78257819D01*
X137592859Y-78257814D01*
X137592858Y-78257809D01*
X137592858Y-78115114D01*
X137589976Y-78085850D01*
X137587912Y-78080869D01*
X137587531Y-78075495D01*
X137577022Y-78048031D01*
X137574849Y-78043685D01*
X139007143Y-78043685D01*
X139007143Y-78257971D01*
X139007645Y-78263074D01*
X139007320Y-78265262D01*
X139008939Y-78276212D01*
X139010025Y-78287235D01*
X139010872Y-78289279D01*
X139011622Y-78294351D01*
X139083050Y-78580065D01*
X139083821Y-78582223D01*
X139083898Y-78583304D01*
X139088556Y-78595478D01*
X139092943Y-78607756D01*
X139093587Y-78608626D01*
X139094407Y-78610767D01*
X139165836Y-78753624D01*
X139173763Y-78766217D01*
X139175279Y-78769877D01*
X139178660Y-78773996D01*
X139181501Y-78778510D01*
X139184494Y-78781106D01*
X139193934Y-78792608D01*
X139336791Y-78935466D01*
X139359521Y-78954121D01*
X139364500Y-78956183D01*
X139368572Y-78959715D01*
X139395423Y-78971703D01*
X139609709Y-79043131D01*
X139624221Y-79046430D01*
X139627879Y-79047946D01*
X139633181Y-79048468D01*
X139638383Y-79049651D01*
X139642337Y-79049369D01*
X139657143Y-79050828D01*
X139800000Y-79050828D01*
X139814805Y-79049369D01*
X139818760Y-79049651D01*
X139823961Y-79048468D01*
X139829264Y-79047946D01*
X139832921Y-79046430D01*
X139847434Y-79043131D01*
X140061720Y-78971703D01*
X140088571Y-78959715D01*
X140092644Y-78956181D01*
X140097622Y-78954120D01*
X140120353Y-78935465D01*
X140191781Y-78864036D01*
X140210435Y-78841306D01*
X140232832Y-78787233D01*
X140232831Y-78728707D01*
X140210434Y-78674635D01*
X140169048Y-78633250D01*
X140114976Y-78610853D01*
X140056450Y-78610854D01*
X140002378Y-78633251D01*
X139979647Y-78651906D01*
X139933259Y-78698294D01*
X139775657Y-78750828D01*
X139681486Y-78750828D01*
X139523883Y-78698294D01*
X139423278Y-78597688D01*
X139396276Y-78543685D01*
X140507143Y-78543685D01*
X140507143Y-78686542D01*
X140510025Y-78715806D01*
X140512087Y-78720784D01*
X140512469Y-78726160D01*
X140522979Y-78753623D01*
X140594407Y-78896482D01*
X140597486Y-78901374D01*
X140598257Y-78903685D01*
X140600752Y-78906562D01*
X140610072Y-78921367D01*
X140624278Y-78933688D01*
X140636604Y-78947900D01*
X140651408Y-78957218D01*
X140654286Y-78959714D01*
X140656597Y-78960484D01*
X140661490Y-78963564D01*
X140804348Y-79034993D01*
X140831811Y-79045502D01*
X140837186Y-79045883D01*
X140842165Y-79047946D01*
X140871429Y-79050828D01*
X141228571Y-79050828D01*
X141257835Y-79047946D01*
X141262813Y-79045883D01*
X141268189Y-79045502D01*
X141295652Y-79034992D01*
X141302557Y-79031539D01*
X141342165Y-79047946D01*
X141400693Y-79047946D01*
X141454765Y-79025548D01*
X141496149Y-78984164D01*
X141518547Y-78930092D01*
X141521429Y-78900828D01*
X141521429Y-78186542D01*
X141864286Y-78186542D01*
X141864286Y-78615114D01*
X141867168Y-78644378D01*
X141869230Y-78649356D01*
X141869612Y-78654732D01*
X141880122Y-78682196D01*
X141951550Y-78825053D01*
X141959477Y-78837646D01*
X141960993Y-78841306D01*
X141964374Y-78845425D01*
X141967215Y-78849939D01*
X141970208Y-78852535D01*
X141979648Y-78864037D01*
X142051077Y-78935466D01*
X142062581Y-78944907D01*
X142065176Y-78947899D01*
X142069685Y-78950737D01*
X142073808Y-78954121D01*
X142077469Y-78955637D01*
X142090061Y-78963564D01*
X142232919Y-79034992D01*
X142260382Y-79045502D01*
X142265757Y-79045883D01*
X142270736Y-79047946D01*
X142300000Y-79050828D01*
X142585714Y-79050828D01*
X142614978Y-79047946D01*
X142619956Y-79045883D01*
X142625332Y-79045502D01*
X142652795Y-79034992D01*
X142795654Y-78963564D01*
X142820539Y-78947899D01*
X142858886Y-78903685D01*
X142877394Y-78848162D01*
X142873246Y-78789782D01*
X142847072Y-78737433D01*
X142802857Y-78699086D01*
X142747335Y-78680578D01*
X142688954Y-78684726D01*
X142661491Y-78695235D01*
X142550305Y-78750828D01*
X142335410Y-78750828D01*
X142245996Y-78706121D01*
X142208991Y-78669116D01*
X142164286Y-78579704D01*
X142164286Y-78221951D01*
X142208991Y-78132540D01*
X142245996Y-78095535D01*
X142335410Y-78050828D01*
X142550304Y-78050828D01*
X142661490Y-78106421D01*
X142688953Y-78116931D01*
X142747333Y-78121079D01*
X142802856Y-78102571D01*
X142847071Y-78064225D01*
X142873246Y-78011876D01*
X142877394Y-77953495D01*
X142858886Y-77897973D01*
X142820540Y-77853758D01*
X142795654Y-77838093D01*
X142652796Y-77766664D01*
X142625333Y-77756154D01*
X142619955Y-77755771D01*
X142614978Y-77753710D01*
X142585714Y-77750828D01*
X142300000Y-77750828D01*
X142270736Y-77753710D01*
X142265755Y-77755773D01*
X142260381Y-77756155D01*
X142232917Y-77766664D01*
X142090061Y-77838093D01*
X142077467Y-77846020D01*
X142073808Y-77847536D01*
X142069687Y-77850917D01*
X142065175Y-77853758D01*
X142062578Y-77856751D01*
X142051078Y-77866190D01*
X141979649Y-77937618D01*
X141970209Y-77949120D01*
X141967215Y-77951717D01*
X141964373Y-77956231D01*
X141960994Y-77960349D01*
X141959478Y-77964007D01*
X141951550Y-77976603D01*
X141880122Y-78119460D01*
X141869612Y-78146924D01*
X141869230Y-78152299D01*
X141867168Y-78157278D01*
X141864286Y-78186542D01*
X141521429Y-78186542D01*
X141521429Y-78115114D01*
X141518547Y-78085850D01*
X141516483Y-78080869D01*
X141516102Y-78075495D01*
X141505593Y-78048031D01*
X141434164Y-77905175D01*
X141431083Y-77900280D01*
X141430314Y-77897973D01*
X141427821Y-77895098D01*
X141418499Y-77880289D01*
X141404289Y-77867965D01*
X141391968Y-77853758D01*
X141377162Y-77844438D01*
X141374284Y-77841942D01*
X141371972Y-77841171D01*
X141367082Y-77838093D01*
X141224225Y-77766664D01*
X141196762Y-77756155D01*
X141191387Y-77755773D01*
X141186407Y-77753710D01*
X141157143Y-77750828D01*
X140871429Y-77750828D01*
X140842165Y-77753710D01*
X140837187Y-77755771D01*
X140831810Y-77756154D01*
X140804347Y-77766664D01*
X140661489Y-77838093D01*
X140636603Y-77853758D01*
X140598257Y-77897973D01*
X140579749Y-77953495D01*
X140583897Y-78011876D01*
X140610072Y-78064225D01*
X140654287Y-78102571D01*
X140709809Y-78121079D01*
X140768190Y-78116931D01*
X140795653Y-78106421D01*
X140906839Y-78050828D01*
X141121733Y-78050828D01*
X141188197Y-78084060D01*
X141221429Y-78150524D01*
X141221429Y-78165266D01*
X141193161Y-78179400D01*
X140871429Y-78179400D01*
X140842165Y-78182282D01*
X140837186Y-78184344D01*
X140831811Y-78184726D01*
X140804348Y-78195235D01*
X140661490Y-78266664D01*
X140656596Y-78269744D01*
X140654287Y-78270514D01*
X140651411Y-78273007D01*
X140636604Y-78282328D01*
X140624279Y-78296538D01*
X140610072Y-78308860D01*
X140600751Y-78323666D01*
X140598257Y-78326543D01*
X140597486Y-78328853D01*
X140594407Y-78333746D01*
X140522979Y-78476603D01*
X140512469Y-78504067D01*
X140512087Y-78509442D01*
X140510025Y-78514421D01*
X140507143Y-78543685D01*
X139396276Y-78543685D01*
X139370097Y-78491328D01*
X139307143Y-78239507D01*
X139307143Y-78062148D01*
X139370097Y-77810327D01*
X139423278Y-77703967D01*
X139523884Y-77603361D01*
X139681486Y-77550828D01*
X139775660Y-77550828D01*
X139933258Y-77603361D01*
X139979648Y-77649751D01*
X140002378Y-77668406D01*
X140056451Y-77690802D01*
X140114977Y-77690802D01*
X140169049Y-77668406D01*
X140210435Y-77627020D01*
X140232831Y-77572948D01*
X140232831Y-77514422D01*
X140210435Y-77460349D01*
X140191780Y-77437619D01*
X140154989Y-77400828D01*
X143221428Y-77400828D01*
X143221428Y-78900828D01*
X143224310Y-78930092D01*
X143246708Y-78984164D01*
X143288092Y-79025548D01*
X143342164Y-79047946D01*
X143400692Y-79047946D01*
X143454764Y-79025548D01*
X143496148Y-78984164D01*
X143518546Y-78930092D01*
X143521428Y-78900828D01*
X143521428Y-78105817D01*
X143531710Y-78095535D01*
X143621124Y-78050828D01*
X143764590Y-78050828D01*
X143831054Y-78084060D01*
X143864286Y-78150524D01*
X143864286Y-78900828D01*
X143867168Y-78930092D01*
X143889566Y-78984164D01*
X143930950Y-79025548D01*
X143985022Y-79047946D01*
X144043550Y-79047946D01*
X144097622Y-79025548D01*
X144139006Y-78984164D01*
X144161404Y-78930092D01*
X144164286Y-78900828D01*
X144164286Y-78543685D01*
X144507143Y-78543685D01*
X144507143Y-78686542D01*
X144510025Y-78715806D01*
X144512087Y-78720784D01*
X144512469Y-78726160D01*
X144522979Y-78753623D01*
X144594407Y-78896482D01*
X144597486Y-78901374D01*
X144598257Y-78903685D01*
X144600752Y-78906562D01*
X144610072Y-78921367D01*
X144624278Y-78933688D01*
X144636604Y-78947900D01*
X144651408Y-78957218D01*
X144654286Y-78959714D01*
X144656597Y-78960484D01*
X144661490Y-78963564D01*
X144804348Y-79034993D01*
X144831811Y-79045502D01*
X144837186Y-79045883D01*
X144842165Y-79047946D01*
X144871429Y-79050828D01*
X145228571Y-79050828D01*
X145257835Y-79047946D01*
X145262813Y-79045883D01*
X145268189Y-79045502D01*
X145295652Y-79034992D01*
X145302557Y-79031539D01*
X145342165Y-79047946D01*
X145400693Y-79047946D01*
X145454765Y-79025548D01*
X145496149Y-78984164D01*
X145518547Y-78930092D01*
X145521429Y-78900828D01*
X145521429Y-78115114D01*
X145518547Y-78085850D01*
X145516483Y-78080869D01*
X145516102Y-78075495D01*
X145505593Y-78048031D01*
X145434164Y-77905175D01*
X145431428Y-77900828D01*
X145935714Y-77900828D01*
X145935714Y-78900828D01*
X145938596Y-78930092D01*
X145960994Y-78984164D01*
X146002378Y-79025548D01*
X146056450Y-79047946D01*
X146114978Y-79047946D01*
X146169050Y-79025548D01*
X146210434Y-78984164D01*
X146232832Y-78930092D01*
X146235714Y-78900828D01*
X146235714Y-78105817D01*
X146245996Y-78095535D01*
X146335410Y-78050828D01*
X146478876Y-78050828D01*
X146545340Y-78084060D01*
X146578572Y-78150524D01*
X146578572Y-78900828D01*
X146581454Y-78930092D01*
X146603852Y-78984164D01*
X146645236Y-79025548D01*
X146699308Y-79047946D01*
X146757836Y-79047946D01*
X146811908Y-79025548D01*
X146853292Y-78984164D01*
X146875690Y-78930092D01*
X146878572Y-78900828D01*
X146878572Y-78115114D01*
X146875690Y-78085850D01*
X146873626Y-78080869D01*
X146873245Y-78075495D01*
X146862736Y-78048031D01*
X146791307Y-77905175D01*
X146788226Y-77900280D01*
X146787457Y-77897973D01*
X146784964Y-77895098D01*
X146775642Y-77880289D01*
X146761432Y-77867965D01*
X146749111Y-77853758D01*
X146734305Y-77844438D01*
X146731427Y-77841942D01*
X146729115Y-77841171D01*
X146724225Y-77838093D01*
X146581368Y-77766664D01*
X146553905Y-77756155D01*
X146548530Y-77755773D01*
X146543550Y-77753710D01*
X146514286Y-77750828D01*
X146300000Y-77750828D01*
X146270736Y-77753710D01*
X146265755Y-77755773D01*
X146260381Y-77756155D01*
X146232917Y-77766664D01*
X146184043Y-77791101D01*
X146169050Y-77776108D01*
X146114978Y-77753710D01*
X146056450Y-77753710D01*
X146002378Y-77776108D01*
X145960994Y-77817492D01*
X145938596Y-77871564D01*
X145935714Y-77900828D01*
X145431428Y-77900828D01*
X145431083Y-77900280D01*
X145430314Y-77897973D01*
X145427821Y-77895098D01*
X145418499Y-77880289D01*
X145404289Y-77867965D01*
X145391968Y-77853758D01*
X145377162Y-77844438D01*
X145374284Y-77841942D01*
X145371972Y-77841171D01*
X145367082Y-77838093D01*
X145224225Y-77766664D01*
X145196762Y-77756155D01*
X145191387Y-77755773D01*
X145186407Y-77753710D01*
X145157143Y-77750828D01*
X144871429Y-77750828D01*
X144842165Y-77753710D01*
X144837187Y-77755771D01*
X144831810Y-77756154D01*
X144804347Y-77766664D01*
X144661489Y-77838093D01*
X144636603Y-77853758D01*
X144598257Y-77897973D01*
X144579749Y-77953495D01*
X144583897Y-78011876D01*
X144610072Y-78064225D01*
X144654287Y-78102571D01*
X144709809Y-78121079D01*
X144768190Y-78116931D01*
X144795653Y-78106421D01*
X144906839Y-78050828D01*
X145121733Y-78050828D01*
X145188197Y-78084060D01*
X145221429Y-78150524D01*
X145221429Y-78165266D01*
X145193161Y-78179400D01*
X144871429Y-78179400D01*
X144842165Y-78182282D01*
X144837186Y-78184344D01*
X144831811Y-78184726D01*
X144804348Y-78195235D01*
X144661490Y-78266664D01*
X144656596Y-78269744D01*
X144654287Y-78270514D01*
X144651411Y-78273007D01*
X144636604Y-78282328D01*
X144624279Y-78296538D01*
X144610072Y-78308860D01*
X144600751Y-78323666D01*
X144598257Y-78326543D01*
X144597486Y-78328853D01*
X144594407Y-78333746D01*
X144522979Y-78476603D01*
X144512469Y-78504067D01*
X144512087Y-78509442D01*
X144510025Y-78514421D01*
X144507143Y-78543685D01*
X144164286Y-78543685D01*
X144164286Y-78115114D01*
X144161404Y-78085850D01*
X144159340Y-78080869D01*
X144158959Y-78075495D01*
X144148450Y-78048031D01*
X144077021Y-77905175D01*
X144073940Y-77900280D01*
X144073171Y-77897973D01*
X144070678Y-77895098D01*
X144061356Y-77880289D01*
X144047146Y-77867965D01*
X144034825Y-77853758D01*
X144020019Y-77844438D01*
X144017141Y-77841942D01*
X144014829Y-77841171D01*
X144009939Y-77838093D01*
X143867082Y-77766664D01*
X143839619Y-77756155D01*
X143834244Y-77755773D01*
X143829264Y-77753710D01*
X143800000Y-77750828D01*
X143585714Y-77750828D01*
X143556450Y-77753710D01*
X143551469Y-77755773D01*
X143546095Y-77756155D01*
X143521428Y-77765593D01*
X143521428Y-77400828D01*
X143518546Y-77371564D01*
X143496148Y-77317492D01*
X143454764Y-77276108D01*
X143400692Y-77253710D01*
X143342164Y-77253710D01*
X143288092Y-77276108D01*
X143246708Y-77317492D01*
X143224310Y-77371564D01*
X143221428Y-77400828D01*
X140154989Y-77400828D01*
X140120352Y-77366191D01*
X140097621Y-77347536D01*
X140092641Y-77345473D01*
X140088571Y-77341943D01*
X140061720Y-77329954D01*
X139847434Y-77258526D01*
X139832926Y-77255227D01*
X139829264Y-77253710D01*
X139823955Y-77253187D01*
X139818761Y-77252006D01*
X139814811Y-77252286D01*
X139800000Y-77250828D01*
X139657143Y-77250828D01*
X139642331Y-77252286D01*
X139638382Y-77252006D01*
X139633187Y-77253187D01*
X139627879Y-77253710D01*
X139624217Y-77255226D01*
X139609708Y-77258526D01*
X139395423Y-77329955D01*
X139368572Y-77341943D01*
X139364502Y-77345472D01*
X139359521Y-77347536D01*
X139336791Y-77366191D01*
X139193934Y-77509048D01*
X139184494Y-77520549D01*
X139181501Y-77523146D01*
X139178660Y-77527659D01*
X139175279Y-77531779D01*
X139173763Y-77535438D01*
X139165836Y-77548032D01*
X139094407Y-77690889D01*
X139093587Y-77693029D01*
X139092943Y-77693900D01*
X139088556Y-77706177D01*
X139083898Y-77718352D01*
X139083821Y-77719432D01*
X139083050Y-77721591D01*
X139011622Y-78007305D01*
X139010872Y-78012376D01*
X139010025Y-78014421D01*
X139008939Y-78025443D01*
X139007320Y-78036394D01*
X139007645Y-78038581D01*
X139007143Y-78043685D01*
X137574849Y-78043685D01*
X137505593Y-77905175D01*
X137502512Y-77900280D01*
X137501743Y-77897973D01*
X137499250Y-77895098D01*
X137489928Y-77880289D01*
X137475718Y-77867965D01*
X137463397Y-77853758D01*
X137448591Y-77844438D01*
X137445713Y-77841942D01*
X137443401Y-77841171D01*
X137438511Y-77838093D01*
X137295654Y-77766664D01*
X137268191Y-77756155D01*
X137262816Y-77755773D01*
X137257836Y-77753710D01*
X137228572Y-77750828D01*
X136942858Y-77750828D01*
X136913594Y-77753710D01*
X136908616Y-77755771D01*
X136903239Y-77756154D01*
X136875776Y-77766664D01*
X136732918Y-77838093D01*
X136728023Y-77841173D01*
X136725716Y-77841943D01*
X136722841Y-77844435D01*
X136708032Y-77853758D01*
X136695709Y-77867966D01*
X136681501Y-77880289D01*
X136672178Y-77895098D01*
X136669686Y-77897973D01*
X136668916Y-77900280D01*
X136665836Y-77905175D01*
X136594408Y-78048032D01*
X136583898Y-78075496D01*
X136583516Y-78080871D01*
X136581454Y-78085850D01*
X136578572Y-78115114D01*
X136235715Y-78115114D01*
X136235715Y-77400828D01*
X136232833Y-77371564D01*
X136210435Y-77317492D01*
X136169051Y-77276108D01*
X136114979Y-77253710D01*
X136056451Y-77253710D01*
X136002379Y-77276108D01*
X135960995Y-77317492D01*
X135938597Y-77371564D01*
X135935715Y-77400828D01*
X135935715Y-77750828D01*
X135657143Y-77750828D01*
X135627879Y-77753710D01*
X135622898Y-77755773D01*
X135617524Y-77756155D01*
X135590060Y-77766664D01*
X135447204Y-77838093D01*
X135434610Y-77846020D01*
X135430951Y-77847536D01*
X135426830Y-77850917D01*
X135422318Y-77853758D01*
X135419721Y-77856751D01*
X135408221Y-77866190D01*
X135336792Y-77937618D01*
X135327352Y-77949120D01*
X135324358Y-77951717D01*
X135321516Y-77956231D01*
X135318137Y-77960349D01*
X135316621Y-77964007D01*
X135308693Y-77976603D01*
X135237265Y-78119460D01*
X135226755Y-78146924D01*
X135226373Y-78152299D01*
X135224311Y-78157278D01*
X135221429Y-78186542D01*
X133521429Y-78186542D01*
X133521429Y-77550828D01*
X133800001Y-77550828D01*
X133829265Y-77547946D01*
X133883337Y-77525548D01*
X133924721Y-77484164D01*
X133947119Y-77430092D01*
X133947119Y-77371564D01*
X133924721Y-77317492D01*
X133883337Y-77276108D01*
X133829265Y-77253710D01*
X133800001Y-77250828D01*
X132942858Y-77250828D01*
X132913594Y-77253710D01*
X132859522Y-77276108D01*
X132818138Y-77317492D01*
X132795740Y-77371564D01*
X132589975Y-77371564D01*
X132567577Y-77317492D01*
X132526193Y-77276108D01*
X132472121Y-77253710D01*
X132413593Y-77253710D01*
X132359521Y-77276108D01*
X132318137Y-77317492D01*
X132295739Y-77371564D01*
X132292857Y-77400828D01*
X132292857Y-78579704D01*
X132248150Y-78669117D01*
X132211145Y-78706122D01*
X132121733Y-78750828D01*
X131906839Y-78750828D01*
X131817425Y-78706121D01*
X131780421Y-78669117D01*
X131735714Y-78579703D01*
X131735714Y-77400828D01*
X131732832Y-77371564D01*
X131710434Y-77317492D01*
X131669050Y-77276108D01*
X131614978Y-77253710D01*
X131556450Y-77253710D01*
X131502378Y-77276108D01*
X131460994Y-77317492D01*
X131438596Y-77371564D01*
X131435714Y-77400828D01*
X131021428Y-77400828D01*
X131018546Y-77371564D01*
X130996148Y-77317492D01*
X130954764Y-77276108D01*
X130900692Y-77253710D01*
X130842164Y-77253710D01*
X130788092Y-77276108D01*
X130746708Y-77317492D01*
X130724310Y-77371564D01*
X130721428Y-77400828D01*
X129698796Y-77400828D01*
X129698796Y-76467151D01*
X129865463Y-76467151D01*
X129869612Y-76525532D01*
X129895786Y-76577879D01*
X129940000Y-76616226D01*
X129995524Y-76634734D01*
X130053905Y-76630585D01*
X130106252Y-76604411D01*
X130144599Y-76560197D01*
X130156587Y-76533346D01*
X130265256Y-76207341D01*
X130763315Y-76207341D01*
X130871983Y-76533346D01*
X130883971Y-76560197D01*
X130922318Y-76604412D01*
X130974666Y-76630585D01*
X131033046Y-76634735D01*
X131088570Y-76616226D01*
X131132784Y-76577879D01*
X131158958Y-76525532D01*
X131163108Y-76467152D01*
X131156588Y-76438478D01*
X130846373Y-75507834D01*
X131223037Y-75507834D01*
X131230166Y-75536362D01*
X131587309Y-76536362D01*
X131599865Y-76562952D01*
X131604918Y-76568534D01*
X131608141Y-76575337D01*
X131624413Y-76590068D01*
X131639145Y-76606341D01*
X131645947Y-76609563D01*
X131651530Y-76614617D01*
X131672204Y-76622000D01*
X131692037Y-76631395D01*
X131699555Y-76631768D01*
X131706648Y-76634302D01*
X131728570Y-76633211D01*
X131750492Y-76634302D01*
X131757584Y-76631768D01*
X131765103Y-76631395D01*
X131784935Y-76622000D01*
X131805610Y-76614617D01*
X131811192Y-76609563D01*
X131817995Y-76606341D01*
X131832726Y-76590068D01*
X131848999Y-76575337D01*
X131852221Y-76568534D01*
X131857275Y-76562952D01*
X131869831Y-76536362D01*
X132226974Y-75536363D01*
X132234103Y-75507834D01*
X132233013Y-75485912D01*
X132507141Y-75485912D01*
X132507141Y-76485912D01*
X132510023Y-76515176D01*
X132532421Y-76569248D01*
X132573805Y-76610632D01*
X132627877Y-76633030D01*
X132686405Y-76633030D01*
X132740477Y-76610632D01*
X132781861Y-76569248D01*
X132804259Y-76515176D01*
X132807141Y-76485912D01*
X132807141Y-75485912D01*
X133221427Y-75485912D01*
X133221427Y-76485912D01*
X133224309Y-76515176D01*
X133246707Y-76569248D01*
X133288091Y-76610632D01*
X133342163Y-76633030D01*
X133400691Y-76633030D01*
X133454763Y-76610632D01*
X133496147Y-76569248D01*
X133518545Y-76515176D01*
X133521427Y-76485912D01*
X133521427Y-75690901D01*
X133531709Y-75680619D01*
X133621123Y-75635912D01*
X133764589Y-75635912D01*
X133831053Y-75669144D01*
X133864285Y-75735608D01*
X133864285Y-76485912D01*
X133867167Y-76515176D01*
X133889565Y-76569248D01*
X133930949Y-76610632D01*
X133985021Y-76633030D01*
X134043549Y-76633030D01*
X134097621Y-76610632D01*
X134139005Y-76569248D01*
X134161403Y-76515176D01*
X134164285Y-76485912D01*
X134164285Y-76128769D01*
X134507142Y-76128769D01*
X134507142Y-76271626D01*
X134510024Y-76300890D01*
X134512086Y-76305868D01*
X134512468Y-76311244D01*
X134522978Y-76338707D01*
X134594406Y-76481566D01*
X134597485Y-76486458D01*
X134598256Y-76488769D01*
X134600751Y-76491646D01*
X134610071Y-76506451D01*
X134624277Y-76518772D01*
X134636603Y-76532984D01*
X134651407Y-76542302D01*
X134654285Y-76544798D01*
X134656596Y-76545568D01*
X134661489Y-76548648D01*
X134804347Y-76620077D01*
X134831810Y-76630586D01*
X134837185Y-76630967D01*
X134842164Y-76633030D01*
X134871428Y-76635912D01*
X135228570Y-76635912D01*
X135257834Y-76633030D01*
X135262812Y-76630967D01*
X135268188Y-76630586D01*
X135295651Y-76620076D01*
X135302556Y-76616623D01*
X135342164Y-76633030D01*
X135400692Y-76633030D01*
X135454764Y-76610632D01*
X135496148Y-76569248D01*
X135518546Y-76515176D01*
X135521428Y-76485912D01*
X135521428Y-75700198D01*
X135864285Y-75700198D01*
X135864285Y-75771626D01*
X135867167Y-75800890D01*
X135869229Y-75805868D01*
X135869611Y-75811244D01*
X135880121Y-75838707D01*
X135951549Y-75981566D01*
X135954628Y-75986458D01*
X135955399Y-75988769D01*
X135957894Y-75991646D01*
X135967214Y-76006451D01*
X135981420Y-76018772D01*
X135993746Y-76032984D01*
X136008550Y-76042302D01*
X136011428Y-76044798D01*
X136013739Y-76045568D01*
X136018632Y-76048648D01*
X136161490Y-76120077D01*
X136188953Y-76130586D01*
X136194328Y-76130967D01*
X136199307Y-76133030D01*
X136228571Y-76135912D01*
X136407446Y-76135912D01*
X136473910Y-76169144D01*
X136507142Y-76235608D01*
X136507142Y-76236216D01*
X136473909Y-76302680D01*
X136407446Y-76335912D01*
X136192552Y-76335912D01*
X136081367Y-76280320D01*
X136053903Y-76269810D01*
X135995523Y-76265662D01*
X135940001Y-76284170D01*
X135895786Y-76322517D01*
X135869611Y-76374866D01*
X135865463Y-76433246D01*
X135883971Y-76488768D01*
X135922318Y-76532983D01*
X135947203Y-76548648D01*
X136090061Y-76620076D01*
X136117524Y-76630586D01*
X136122899Y-76630967D01*
X136127878Y-76633030D01*
X136157142Y-76635912D01*
X136442856Y-76635912D01*
X136472120Y-76633030D01*
X136477098Y-76630967D01*
X136482474Y-76630586D01*
X136509938Y-76620076D01*
X136652795Y-76548648D01*
X136657689Y-76545567D01*
X136659997Y-76544798D01*
X136662871Y-76542305D01*
X136677681Y-76532983D01*
X136690003Y-76518774D01*
X136704212Y-76506452D01*
X136713534Y-76491642D01*
X136716027Y-76488768D01*
X136716796Y-76486460D01*
X136719877Y-76481566D01*
X136791306Y-76338708D01*
X136801816Y-76311245D01*
X136802198Y-76305867D01*
X136804260Y-76300890D01*
X136807142Y-76271626D01*
X136807142Y-76200198D01*
X136804260Y-76170934D01*
X136802196Y-76165953D01*
X136801815Y-76160579D01*
X136791306Y-76133115D01*
X136719877Y-75990259D01*
X136716796Y-75985364D01*
X136716027Y-75983057D01*
X136713534Y-75980182D01*
X136704212Y-75965373D01*
X136690002Y-75953049D01*
X136677681Y-75938842D01*
X136662875Y-75929522D01*
X136659997Y-75927026D01*
X136657685Y-75926255D01*
X136652795Y-75923177D01*
X136509938Y-75851748D01*
X136482475Y-75841239D01*
X136477100Y-75840857D01*
X136472120Y-75838794D01*
X136442856Y-75835912D01*
X136263980Y-75835912D01*
X136197517Y-75802681D01*
X136164285Y-75736217D01*
X136164285Y-75735607D01*
X136197516Y-75669144D01*
X136263981Y-75635912D01*
X136407446Y-75635912D01*
X136518630Y-75691505D01*
X136546094Y-75702014D01*
X136604474Y-75706163D01*
X136659996Y-75687656D01*
X136704212Y-75649309D01*
X136730386Y-75596960D01*
X136734535Y-75538580D01*
X136716027Y-75483057D01*
X136677681Y-75438842D01*
X136652795Y-75423177D01*
X136509938Y-75351748D01*
X136482475Y-75341239D01*
X136477100Y-75340857D01*
X136472120Y-75338794D01*
X136442856Y-75335912D01*
X136228571Y-75335912D01*
X136199307Y-75338794D01*
X136194329Y-75340855D01*
X136188952Y-75341238D01*
X136161489Y-75351748D01*
X136018631Y-75423177D01*
X136013736Y-75426257D01*
X136011429Y-75427027D01*
X136008554Y-75429519D01*
X135993745Y-75438842D01*
X135981422Y-75453050D01*
X135967214Y-75465373D01*
X135957891Y-75480182D01*
X135955399Y-75483057D01*
X135954629Y-75485364D01*
X135951549Y-75490259D01*
X135880121Y-75633116D01*
X135869611Y-75660580D01*
X135869229Y-75665955D01*
X135867167Y-75670934D01*
X135864285Y-75700198D01*
X135521428Y-75700198D01*
X135518546Y-75670934D01*
X135516482Y-75665953D01*
X135516101Y-75660579D01*
X135505592Y-75633115D01*
X135434163Y-75490259D01*
X135431082Y-75485364D01*
X135430313Y-75483057D01*
X135427820Y-75480182D01*
X135418498Y-75465373D01*
X135404288Y-75453049D01*
X135391967Y-75438842D01*
X135377161Y-75429522D01*
X135374283Y-75427026D01*
X135371971Y-75426255D01*
X135367081Y-75423177D01*
X135224224Y-75351748D01*
X135196761Y-75341239D01*
X135191386Y-75340857D01*
X135186406Y-75338794D01*
X135157142Y-75335912D01*
X134871428Y-75335912D01*
X134842164Y-75338794D01*
X134837186Y-75340855D01*
X134831809Y-75341238D01*
X134804346Y-75351748D01*
X134661488Y-75423177D01*
X134636602Y-75438842D01*
X134598256Y-75483057D01*
X134579748Y-75538579D01*
X134583896Y-75596960D01*
X134610071Y-75649309D01*
X134654286Y-75687655D01*
X134709808Y-75706163D01*
X134768189Y-75702015D01*
X134795652Y-75691505D01*
X134906838Y-75635912D01*
X135121732Y-75635912D01*
X135188196Y-75669144D01*
X135221428Y-75735608D01*
X135221428Y-75750350D01*
X135193160Y-75764484D01*
X134871428Y-75764484D01*
X134842164Y-75767366D01*
X134837185Y-75769428D01*
X134831810Y-75769810D01*
X134804347Y-75780319D01*
X134661489Y-75851748D01*
X134656595Y-75854828D01*
X134654286Y-75855598D01*
X134651410Y-75858091D01*
X134636603Y-75867412D01*
X134624278Y-75881622D01*
X134610071Y-75893944D01*
X134600750Y-75908750D01*
X134598256Y-75911627D01*
X134597485Y-75913937D01*
X134594406Y-75918830D01*
X134522978Y-76061687D01*
X134512468Y-76089151D01*
X134512086Y-76094526D01*
X134510024Y-76099505D01*
X134507142Y-76128769D01*
X134164285Y-76128769D01*
X134164285Y-75700198D01*
X134161403Y-75670934D01*
X134159339Y-75665953D01*
X134158958Y-75660579D01*
X134148449Y-75633115D01*
X134077020Y-75490259D01*
X134073939Y-75485364D01*
X134073170Y-75483057D01*
X134070677Y-75480182D01*
X134061355Y-75465373D01*
X134047145Y-75453049D01*
X134034824Y-75438842D01*
X134020018Y-75429522D01*
X134017140Y-75427026D01*
X134014828Y-75426255D01*
X134009938Y-75423177D01*
X133867081Y-75351748D01*
X133839618Y-75341239D01*
X133834243Y-75340857D01*
X133829263Y-75338794D01*
X133799999Y-75335912D01*
X133585713Y-75335912D01*
X133556449Y-75338794D01*
X133551468Y-75340857D01*
X133546094Y-75341239D01*
X133518630Y-75351748D01*
X133469756Y-75376185D01*
X133454763Y-75361192D01*
X133400691Y-75338794D01*
X133342163Y-75338794D01*
X133288091Y-75361192D01*
X133246707Y-75402576D01*
X133224309Y-75456648D01*
X133221427Y-75485912D01*
X132807141Y-75485912D01*
X132804259Y-75456648D01*
X132781861Y-75402576D01*
X132740477Y-75361192D01*
X132686405Y-75338794D01*
X132627877Y-75338794D01*
X132573805Y-75361192D01*
X132532421Y-75402576D01*
X132510023Y-75456648D01*
X132507141Y-75485912D01*
X132233013Y-75485912D01*
X132231196Y-75449379D01*
X132206142Y-75396487D01*
X132162753Y-75357207D01*
X132107635Y-75337522D01*
X132049180Y-75340429D01*
X131996288Y-75365483D01*
X131957008Y-75408872D01*
X131944452Y-75435462D01*
X131728570Y-76039931D01*
X131512688Y-75435462D01*
X131500132Y-75408872D01*
X131460852Y-75365483D01*
X131407960Y-75340429D01*
X131349505Y-75337522D01*
X131294387Y-75357207D01*
X131250998Y-75396487D01*
X131225944Y-75449379D01*
X131223037Y-75507834D01*
X130846373Y-75507834D01*
X130686454Y-75028079D01*
X132438595Y-75028079D01*
X132438595Y-75086605D01*
X132440821Y-75091978D01*
X132460992Y-75140676D01*
X132479647Y-75163407D01*
X132551075Y-75234835D01*
X132573805Y-75253490D01*
X132596202Y-75262766D01*
X132627877Y-75275887D01*
X132686405Y-75275887D01*
X132724639Y-75260049D01*
X132740476Y-75253490D01*
X132740480Y-75253485D01*
X132763206Y-75234836D01*
X132834635Y-75163408D01*
X132853290Y-75140677D01*
X132853291Y-75140676D01*
X132875688Y-75086604D01*
X132875688Y-75028078D01*
X132858223Y-74985912D01*
X137149999Y-74985912D01*
X137149999Y-76485912D01*
X137152881Y-76515176D01*
X137175279Y-76569248D01*
X137216663Y-76610632D01*
X137270735Y-76633030D01*
X137329263Y-76633030D01*
X137383335Y-76610632D01*
X137424719Y-76569248D01*
X137447117Y-76515176D01*
X137449999Y-76485912D01*
X137449999Y-75690901D01*
X137460281Y-75680619D01*
X137549695Y-75635912D01*
X137693161Y-75635912D01*
X137759625Y-75669144D01*
X137792857Y-75735608D01*
X137792857Y-76485912D01*
X137795739Y-76515176D01*
X137818137Y-76569248D01*
X137859521Y-76610632D01*
X137913593Y-76633030D01*
X137972121Y-76633030D01*
X138026193Y-76610632D01*
X138067577Y-76569248D01*
X138089975Y-76515176D01*
X138092857Y-76485912D01*
X138092857Y-75700198D01*
X138089975Y-75670934D01*
X138087911Y-75665953D01*
X138087530Y-75660579D01*
X138077021Y-75633115D01*
X138074848Y-75628769D01*
X139578571Y-75628769D01*
X139578571Y-75843055D01*
X139579073Y-75848158D01*
X139578748Y-75850346D01*
X139580367Y-75861296D01*
X139581453Y-75872319D01*
X139582300Y-75874363D01*
X139583050Y-75879435D01*
X139654478Y-76165149D01*
X139655249Y-76167307D01*
X139655326Y-76168388D01*
X139659984Y-76180562D01*
X139664371Y-76192840D01*
X139665015Y-76193710D01*
X139665835Y-76195851D01*
X139737264Y-76338708D01*
X139745191Y-76351301D01*
X139746707Y-76354961D01*
X139750088Y-76359080D01*
X139752929Y-76363594D01*
X139755922Y-76366190D01*
X139765362Y-76377692D01*
X139908219Y-76520550D01*
X139930949Y-76539205D01*
X139935928Y-76541267D01*
X139940000Y-76544799D01*
X139966851Y-76556787D01*
X140181137Y-76628215D01*
X140195649Y-76631514D01*
X140199307Y-76633030D01*
X140204609Y-76633552D01*
X140209811Y-76634735D01*
X140213765Y-76634453D01*
X140228571Y-76635912D01*
X140371428Y-76635912D01*
X140386233Y-76634453D01*
X140390188Y-76634735D01*
X140395389Y-76633552D01*
X140400692Y-76633030D01*
X140404349Y-76631514D01*
X140418862Y-76628215D01*
X140633148Y-76556787D01*
X140659999Y-76544799D01*
X140664072Y-76541265D01*
X140669050Y-76539204D01*
X140691781Y-76520549D01*
X140763209Y-76449120D01*
X140781863Y-76426390D01*
X140804260Y-76372317D01*
X140804259Y-76313791D01*
X140781862Y-76259719D01*
X140740476Y-76218334D01*
X140686404Y-76195937D01*
X140627878Y-76195938D01*
X140573806Y-76218335D01*
X140551075Y-76236990D01*
X140504687Y-76283378D01*
X140347085Y-76335912D01*
X140252914Y-76335912D01*
X140095311Y-76283378D01*
X139994706Y-76182772D01*
X139967704Y-76128769D01*
X141078571Y-76128769D01*
X141078571Y-76271626D01*
X141081453Y-76300890D01*
X141083515Y-76305868D01*
X141083897Y-76311244D01*
X141094407Y-76338707D01*
X141165835Y-76481566D01*
X141168914Y-76486458D01*
X141169685Y-76488769D01*
X141172180Y-76491646D01*
X141181500Y-76506451D01*
X141195706Y-76518772D01*
X141208032Y-76532984D01*
X141222836Y-76542302D01*
X141225714Y-76544798D01*
X141228025Y-76545568D01*
X141232918Y-76548648D01*
X141375776Y-76620077D01*
X141403239Y-76630586D01*
X141408614Y-76630967D01*
X141413593Y-76633030D01*
X141442857Y-76635912D01*
X141799999Y-76635912D01*
X141829263Y-76633030D01*
X141834241Y-76630967D01*
X141839617Y-76630586D01*
X141867080Y-76620076D01*
X141873985Y-76616623D01*
X141913593Y-76633030D01*
X141972121Y-76633030D01*
X142026193Y-76610632D01*
X142067577Y-76569248D01*
X142089975Y-76515176D01*
X142092857Y-76485912D01*
X142092857Y-75700198D01*
X142089975Y-75670934D01*
X142087911Y-75665953D01*
X142087530Y-75660579D01*
X142077021Y-75633115D01*
X142005592Y-75490259D01*
X142002856Y-75485912D01*
X142507142Y-75485912D01*
X142507142Y-76485912D01*
X142510024Y-76515176D01*
X142532422Y-76569248D01*
X142573806Y-76610632D01*
X142627878Y-76633030D01*
X142686406Y-76633030D01*
X142740478Y-76610632D01*
X142781862Y-76569248D01*
X142804260Y-76515176D01*
X142807142Y-76485912D01*
X142807142Y-75690901D01*
X142817424Y-75680619D01*
X142906838Y-75635912D01*
X143050304Y-75635912D01*
X143116768Y-75669144D01*
X143150000Y-75735608D01*
X143150000Y-76485912D01*
X143152882Y-76515176D01*
X143175280Y-76569248D01*
X143216664Y-76610632D01*
X143270736Y-76633030D01*
X143329264Y-76633030D01*
X143383336Y-76610632D01*
X143424720Y-76569248D01*
X143447118Y-76515176D01*
X143450000Y-76485912D01*
X143450000Y-75700198D01*
X143447118Y-75670934D01*
X143445054Y-75665953D01*
X143444673Y-75660579D01*
X143434164Y-75633115D01*
X143362735Y-75490259D01*
X143359999Y-75485912D01*
X143864285Y-75485912D01*
X143864285Y-76485912D01*
X143867167Y-76515176D01*
X143889565Y-76569248D01*
X143930949Y-76610632D01*
X143985021Y-76633030D01*
X144043549Y-76633030D01*
X144097621Y-76610632D01*
X144139005Y-76569248D01*
X144161403Y-76515176D01*
X144164285Y-76485912D01*
X144164285Y-75690901D01*
X144174567Y-75680619D01*
X144263981Y-75635912D01*
X144407447Y-75635912D01*
X144473911Y-75669144D01*
X144507143Y-75735608D01*
X144507143Y-76485912D01*
X144510025Y-76515176D01*
X144532423Y-76569248D01*
X144573807Y-76610632D01*
X144627879Y-76633030D01*
X144686407Y-76633030D01*
X144740479Y-76610632D01*
X144781863Y-76569248D01*
X144804261Y-76515176D01*
X144807143Y-76485912D01*
X144807143Y-75771626D01*
X145150000Y-75771626D01*
X145150000Y-76200198D01*
X145152882Y-76229462D01*
X145154944Y-76234440D01*
X145155326Y-76239816D01*
X145165836Y-76267280D01*
X145237264Y-76410137D01*
X145245191Y-76422730D01*
X145246707Y-76426390D01*
X145250088Y-76430509D01*
X145252929Y-76435023D01*
X145255922Y-76437619D01*
X145265362Y-76449121D01*
X145336791Y-76520550D01*
X145348295Y-76529991D01*
X145350890Y-76532983D01*
X145355399Y-76535821D01*
X145359522Y-76539205D01*
X145363183Y-76540721D01*
X145375775Y-76548648D01*
X145518633Y-76620076D01*
X145546096Y-76630586D01*
X145551471Y-76630967D01*
X145556450Y-76633030D01*
X145585714Y-76635912D01*
X145800000Y-76635912D01*
X145829264Y-76633030D01*
X145834242Y-76630967D01*
X145839618Y-76630586D01*
X145867082Y-76620076D01*
X146009939Y-76548648D01*
X146022532Y-76540720D01*
X146026192Y-76539205D01*
X146030311Y-76535823D01*
X146034825Y-76532983D01*
X146037421Y-76529989D01*
X146048923Y-76520550D01*
X146120352Y-76449121D01*
X146129793Y-76437616D01*
X146132785Y-76435022D01*
X146135623Y-76430512D01*
X146139007Y-76426390D01*
X146140523Y-76422728D01*
X146148450Y-76410137D01*
X146219878Y-76267279D01*
X146230388Y-76239816D01*
X146230769Y-76234440D01*
X146232832Y-76229462D01*
X146235714Y-76200198D01*
X146235714Y-75771626D01*
X146232832Y-75742362D01*
X146230769Y-75737383D01*
X146230388Y-75732008D01*
X146219878Y-75704545D01*
X146148450Y-75561687D01*
X146140521Y-75549092D01*
X146139006Y-75545433D01*
X146135624Y-75541312D01*
X146132785Y-75536802D01*
X146129793Y-75534207D01*
X146120351Y-75522702D01*
X146083560Y-75485912D01*
X146578571Y-75485912D01*
X146578571Y-76271626D01*
X146581453Y-76300890D01*
X146583514Y-76305867D01*
X146583897Y-76311245D01*
X146594407Y-76338708D01*
X146665836Y-76481566D01*
X146668916Y-76486460D01*
X146669686Y-76488768D01*
X146672178Y-76491641D01*
X146681501Y-76506452D01*
X146695712Y-76518776D01*
X146708033Y-76532983D01*
X146722840Y-76542304D01*
X146725716Y-76544798D01*
X146728024Y-76545567D01*
X146732918Y-76548648D01*
X146875776Y-76620076D01*
X146903239Y-76630586D01*
X146908614Y-76630967D01*
X146913593Y-76633030D01*
X146942857Y-76635912D01*
X147157143Y-76635912D01*
X147186407Y-76633030D01*
X147191385Y-76630967D01*
X147196761Y-76630586D01*
X147224225Y-76620076D01*
X147273099Y-76595638D01*
X147288093Y-76610632D01*
X147342165Y-76633030D01*
X147400693Y-76633030D01*
X147454765Y-76610632D01*
X147496149Y-76569248D01*
X147518547Y-76515176D01*
X147521429Y-76485912D01*
X147521429Y-75485912D01*
X147518547Y-75456648D01*
X147496149Y-75402576D01*
X147454765Y-75361192D01*
X147400693Y-75338794D01*
X147342165Y-75338794D01*
X147288093Y-75361192D01*
X147246709Y-75402576D01*
X147224311Y-75456648D01*
X147221429Y-75485912D01*
X147221429Y-76280923D01*
X147211145Y-76291206D01*
X147121733Y-76335912D01*
X146978267Y-76335912D01*
X146911803Y-76302680D01*
X146878571Y-76236216D01*
X146878571Y-75485912D01*
X146875689Y-75456648D01*
X146853291Y-75402576D01*
X146811907Y-75361192D01*
X146757835Y-75338794D01*
X146699307Y-75338794D01*
X146645235Y-75361192D01*
X146603851Y-75402576D01*
X146581453Y-75456648D01*
X146578571Y-75485912D01*
X146083560Y-75485912D01*
X146048922Y-75451274D01*
X146037422Y-75441836D01*
X146034825Y-75438842D01*
X146030308Y-75435999D01*
X146026191Y-75432620D01*
X146022534Y-75431105D01*
X146009939Y-75423177D01*
X145867082Y-75351748D01*
X145839619Y-75341239D01*
X145834244Y-75340857D01*
X145829264Y-75338794D01*
X145800000Y-75335912D01*
X145585714Y-75335912D01*
X145556450Y-75338794D01*
X145551469Y-75340857D01*
X145546095Y-75341239D01*
X145518631Y-75351748D01*
X145375775Y-75423177D01*
X145363181Y-75431104D01*
X145359522Y-75432620D01*
X145355401Y-75436001D01*
X145350889Y-75438842D01*
X145348292Y-75441835D01*
X145336792Y-75451274D01*
X145265363Y-75522702D01*
X145255923Y-75534204D01*
X145252929Y-75536801D01*
X145250087Y-75541315D01*
X145246708Y-75545433D01*
X145245192Y-75549091D01*
X145237264Y-75561687D01*
X145165836Y-75704544D01*
X145155326Y-75732008D01*
X145154944Y-75737383D01*
X145152882Y-75742362D01*
X145150000Y-75771626D01*
X144807143Y-75771626D01*
X144807143Y-75700198D01*
X144804261Y-75670934D01*
X144802197Y-75665953D01*
X144801816Y-75660579D01*
X144791307Y-75633115D01*
X144719878Y-75490259D01*
X144716797Y-75485364D01*
X144716028Y-75483057D01*
X144713535Y-75480182D01*
X144704213Y-75465373D01*
X144690003Y-75453049D01*
X144677682Y-75438842D01*
X144662876Y-75429522D01*
X144659998Y-75427026D01*
X144657686Y-75426255D01*
X144652796Y-75423177D01*
X144509939Y-75351748D01*
X144482476Y-75341239D01*
X144477101Y-75340857D01*
X144472121Y-75338794D01*
X144442857Y-75335912D01*
X144228571Y-75335912D01*
X144199307Y-75338794D01*
X144194326Y-75340857D01*
X144188952Y-75341239D01*
X144161488Y-75351748D01*
X144112614Y-75376185D01*
X144097621Y-75361192D01*
X144043549Y-75338794D01*
X143985021Y-75338794D01*
X143930949Y-75361192D01*
X143889565Y-75402576D01*
X143867167Y-75456648D01*
X143864285Y-75485912D01*
X143359999Y-75485912D01*
X143359654Y-75485364D01*
X143358885Y-75483057D01*
X143356392Y-75480182D01*
X143347070Y-75465373D01*
X143332860Y-75453049D01*
X143320539Y-75438842D01*
X143305733Y-75429522D01*
X143302855Y-75427026D01*
X143300543Y-75426255D01*
X143295653Y-75423177D01*
X143152796Y-75351748D01*
X143125333Y-75341239D01*
X143119958Y-75340857D01*
X143114978Y-75338794D01*
X143085714Y-75335912D01*
X142871428Y-75335912D01*
X142842164Y-75338794D01*
X142837183Y-75340857D01*
X142831809Y-75341239D01*
X142804345Y-75351748D01*
X142755471Y-75376185D01*
X142740478Y-75361192D01*
X142686406Y-75338794D01*
X142627878Y-75338794D01*
X142573806Y-75361192D01*
X142532422Y-75402576D01*
X142510024Y-75456648D01*
X142507142Y-75485912D01*
X142002856Y-75485912D01*
X142002511Y-75485364D01*
X142001742Y-75483057D01*
X141999249Y-75480182D01*
X141989927Y-75465373D01*
X141975717Y-75453049D01*
X141963396Y-75438842D01*
X141948590Y-75429522D01*
X141945712Y-75427026D01*
X141943400Y-75426255D01*
X141938510Y-75423177D01*
X141795653Y-75351748D01*
X141768190Y-75341239D01*
X141762815Y-75340857D01*
X141757835Y-75338794D01*
X141728571Y-75335912D01*
X141442857Y-75335912D01*
X141413593Y-75338794D01*
X141408615Y-75340855D01*
X141403238Y-75341238D01*
X141375775Y-75351748D01*
X141232917Y-75423177D01*
X141208031Y-75438842D01*
X141169685Y-75483057D01*
X141151177Y-75538579D01*
X141155325Y-75596960D01*
X141181500Y-75649309D01*
X141225715Y-75687655D01*
X141281237Y-75706163D01*
X141339618Y-75702015D01*
X141367081Y-75691505D01*
X141478267Y-75635912D01*
X141693161Y-75635912D01*
X141759625Y-75669144D01*
X141792857Y-75735608D01*
X141792857Y-75750350D01*
X141764589Y-75764484D01*
X141442857Y-75764484D01*
X141413593Y-75767366D01*
X141408614Y-75769428D01*
X141403239Y-75769810D01*
X141375776Y-75780319D01*
X141232918Y-75851748D01*
X141228024Y-75854828D01*
X141225715Y-75855598D01*
X141222839Y-75858091D01*
X141208032Y-75867412D01*
X141195707Y-75881622D01*
X141181500Y-75893944D01*
X141172179Y-75908750D01*
X141169685Y-75911627D01*
X141168914Y-75913937D01*
X141165835Y-75918830D01*
X141094407Y-76061687D01*
X141083897Y-76089151D01*
X141083515Y-76094526D01*
X141081453Y-76099505D01*
X141078571Y-76128769D01*
X139967704Y-76128769D01*
X139941525Y-76076412D01*
X139878571Y-75824591D01*
X139878571Y-75647232D01*
X139941525Y-75395411D01*
X139994706Y-75289051D01*
X140095312Y-75188445D01*
X140252914Y-75135912D01*
X140347088Y-75135912D01*
X140504686Y-75188445D01*
X140551076Y-75234835D01*
X140573806Y-75253490D01*
X140627879Y-75275886D01*
X140686405Y-75275886D01*
X140740477Y-75253490D01*
X140781863Y-75212104D01*
X140804259Y-75158032D01*
X140804259Y-75099506D01*
X140781863Y-75045433D01*
X140763208Y-75022703D01*
X140691780Y-74951275D01*
X140669049Y-74932620D01*
X140664069Y-74930557D01*
X140659999Y-74927027D01*
X140633148Y-74915038D01*
X140418862Y-74843610D01*
X140404354Y-74840311D01*
X140400692Y-74838794D01*
X140395383Y-74838271D01*
X140390189Y-74837090D01*
X140386239Y-74837370D01*
X140371428Y-74835912D01*
X140228571Y-74835912D01*
X140213759Y-74837370D01*
X140209810Y-74837090D01*
X140204615Y-74838271D01*
X140199307Y-74838794D01*
X140195645Y-74840310D01*
X140181136Y-74843610D01*
X139966851Y-74915039D01*
X139940000Y-74927027D01*
X139935930Y-74930556D01*
X139930949Y-74932620D01*
X139908219Y-74951275D01*
X139765362Y-75094132D01*
X139755922Y-75105633D01*
X139752929Y-75108230D01*
X139750088Y-75112743D01*
X139746707Y-75116863D01*
X139745191Y-75120522D01*
X139737264Y-75133116D01*
X139665835Y-75275973D01*
X139665015Y-75278113D01*
X139664371Y-75278984D01*
X139659984Y-75291261D01*
X139655326Y-75303436D01*
X139655249Y-75304516D01*
X139654478Y-75306675D01*
X139583050Y-75592389D01*
X139582300Y-75597460D01*
X139581453Y-75599505D01*
X139580367Y-75610527D01*
X139578748Y-75621478D01*
X139579073Y-75623665D01*
X139578571Y-75628769D01*
X138074848Y-75628769D01*
X138005592Y-75490259D01*
X138002511Y-75485364D01*
X138001742Y-75483057D01*
X137999249Y-75480182D01*
X137989927Y-75465373D01*
X137975717Y-75453049D01*
X137963396Y-75438842D01*
X137948590Y-75429522D01*
X137945712Y-75427026D01*
X137943400Y-75426255D01*
X137938510Y-75423177D01*
X137795653Y-75351748D01*
X137768190Y-75341239D01*
X137762815Y-75340857D01*
X137757835Y-75338794D01*
X137728571Y-75335912D01*
X137514285Y-75335912D01*
X137485021Y-75338794D01*
X137480040Y-75340857D01*
X137474666Y-75341239D01*
X137449999Y-75350677D01*
X137449999Y-74985912D01*
X137447117Y-74956648D01*
X137424719Y-74902576D01*
X137383335Y-74861192D01*
X137329263Y-74838794D01*
X137270735Y-74838794D01*
X137216663Y-74861192D01*
X137175279Y-74902576D01*
X137152881Y-74956648D01*
X137149999Y-74985912D01*
X132858223Y-74985912D01*
X132853291Y-74974006D01*
X132834636Y-74951275D01*
X132763207Y-74879846D01*
X132740476Y-74861191D01*
X132708802Y-74848071D01*
X132686405Y-74838794D01*
X132627877Y-74838794D01*
X132605480Y-74848071D01*
X132573806Y-74861191D01*
X132573805Y-74861192D01*
X132551074Y-74879847D01*
X132479646Y-74951276D01*
X132460996Y-74974001D01*
X132460992Y-74974006D01*
X132440822Y-75022703D01*
X132438595Y-75028079D01*
X130686454Y-75028079D01*
X130656587Y-74938478D01*
X130644599Y-74911627D01*
X130637576Y-74903530D01*
X130632784Y-74893945D01*
X130618575Y-74881621D01*
X130606252Y-74867413D01*
X130596666Y-74862620D01*
X130588570Y-74855598D01*
X130570726Y-74849649D01*
X130553905Y-74841239D01*
X130543216Y-74840479D01*
X130533046Y-74837089D01*
X130514280Y-74838422D01*
X130495524Y-74837090D01*
X130485356Y-74840479D01*
X130474666Y-74841239D01*
X130457842Y-74849650D01*
X130440000Y-74855598D01*
X130431905Y-74862618D01*
X130422318Y-74867412D01*
X130409992Y-74881623D01*
X130395786Y-74893945D01*
X130390993Y-74903529D01*
X130383971Y-74911627D01*
X130371983Y-74938478D01*
X129871983Y-76438478D01*
X129865463Y-76467151D01*
X129698796Y-76467151D01*
X129698796Y-74669245D01*
X147688096Y-74669245D01*
X147688096Y-79217495D01*
G37*
D11*
X114870000Y-74825000D03*
D12*
X114870000Y-77365000D03*
X114870000Y-79905000D03*
X114870000Y-82445000D03*
X114870000Y-84985000D03*
X114870000Y-87525000D03*
X114870000Y-90065000D03*
X114870000Y-92605000D03*
X114870000Y-97685000D03*
X114870000Y-100225000D03*
X114870000Y-102765000D03*
X114870000Y-105305000D03*
X114870000Y-107845000D03*
X114870000Y-110385000D03*
X163130000Y-110385000D03*
X163130000Y-107845000D03*
X163130000Y-105305000D03*
X163130000Y-102765000D03*
X163130000Y-100225000D03*
X163130000Y-97685000D03*
X163130000Y-95145000D03*
X163130000Y-92605000D03*
X163130000Y-88545000D03*
X163130000Y-86005000D03*
X163130000Y-83465000D03*
X163130000Y-80925000D03*
X163130000Y-78385000D03*
X163130000Y-75845000D03*
X163130000Y-73305000D03*
D13*
X151540000Y-111000000D03*
D14*
X149000000Y-111000000D03*
D15*
X133920000Y-98810000D03*
X136460000Y-98810000D03*
X139000000Y-98810000D03*
X141540000Y-98810000D03*
X144080000Y-98810000D03*
X144080000Y-91190000D03*
X141540000Y-91190000D03*
X139000000Y-91190000D03*
X136460000Y-91190000D03*
D16*
X133920000Y-91190000D03*
D14*
X120215000Y-111015000D03*
D13*
X122755000Y-111015000D03*
X125295000Y-111015000D03*
X127835000Y-111015000D03*
D14*
X135920000Y-111000000D03*
D13*
X138460000Y-111000000D03*
X141000000Y-111000000D03*
D17*
X164955000Y-95145000D02*
X163130000Y-95145000D01*
X165800000Y-91600000D02*
X165800000Y-94300000D01*
X165800000Y-94300000D02*
X164955000Y-95145000D01*
X164800000Y-90600000D02*
X165800000Y-91600000D01*
X157600000Y-90600000D02*
X164800000Y-90600000D01*
X140600000Y-86400000D02*
X153400000Y-86400000D01*
X139000000Y-88000000D02*
X140600000Y-86400000D01*
X139000000Y-91190000D02*
X139000000Y-88000000D01*
X153400000Y-86400000D02*
X157600000Y-90600000D01*
X124485000Y-97685000D02*
X114870000Y-97685000D01*
X135920000Y-109120000D02*
X124485000Y-97685000D01*
X135920000Y-111000000D02*
X135920000Y-109120000D01*
X112000000Y-95000000D02*
X111000000Y-94000000D01*
X112555000Y-82445000D02*
X114870000Y-82445000D01*
X124300000Y-95000000D02*
X112000000Y-95000000D01*
X138460000Y-109160000D02*
X124300000Y-95000000D01*
X111000000Y-94000000D02*
X111000000Y-84000000D01*
X111000000Y-84000000D02*
X112555000Y-82445000D01*
X138460000Y-111000000D02*
X138460000Y-109160000D01*
X130520000Y-113700000D02*
X127835000Y-111015000D01*
X138460000Y-112540000D02*
X137300000Y-113700000D01*
X138460000Y-111000000D02*
X138460000Y-112540000D01*
X137300000Y-113700000D02*
X130520000Y-113700000D01*
X161400000Y-115600000D02*
X163130000Y-113870000D01*
X124600000Y-115600000D02*
X161400000Y-115600000D01*
X163130000Y-113870000D02*
X163130000Y-110385000D01*
X122755000Y-113755000D02*
X124600000Y-115600000D01*
X122755000Y-111015000D02*
X122755000Y-113755000D01*
X165845000Y-107845000D02*
X163130000Y-107845000D01*
X167000000Y-109000000D02*
X165845000Y-107845000D01*
X167000000Y-115000000D02*
X167000000Y-109000000D01*
X122000000Y-117000000D02*
X165000000Y-117000000D01*
X165000000Y-117000000D02*
X167000000Y-115000000D01*
X120215000Y-115215000D02*
X122000000Y-117000000D01*
X120215000Y-111015000D02*
X120215000Y-115215000D01*
X155405000Y-92605000D02*
X151400000Y-88600000D01*
X163130000Y-92605000D02*
X155405000Y-92605000D01*
X142500000Y-88600000D02*
X151400000Y-88600000D01*
X141540000Y-89560000D02*
X142500000Y-88600000D01*
X141540000Y-91190000D02*
X141540000Y-89560000D01*
X119885000Y-84985000D02*
X114870000Y-84985000D01*
X134325000Y-94825000D02*
X129725000Y-94825000D01*
X129725000Y-94825000D02*
X119885000Y-84985000D01*
X136460000Y-98810000D02*
X136460000Y-96960000D01*
X136460000Y-96960000D02*
X134325000Y-94825000D01*
X145335000Y-104335000D02*
X146665000Y-104335000D01*
X141500000Y-100500000D02*
X145335000Y-104335000D01*
X141540000Y-100460000D02*
X141500000Y-100500000D01*
X141540000Y-98810000D02*
X141540000Y-100460000D01*
X151540000Y-109210000D02*
X151540000Y-111000000D01*
X146665000Y-104335000D02*
X151540000Y-109210000D01*
X139000000Y-101000000D02*
X149000000Y-111000000D01*
X139000000Y-98810000D02*
X139000000Y-101000000D01*
X133445000Y-82445000D02*
X114870000Y-82445000D01*
X136460000Y-85460000D02*
X133445000Y-82445000D01*
X136460000Y-91190000D02*
X136460000Y-85460000D01*
G04 #@! TA.AperFunction,Conductor*
G36*
X168942539Y-72020185D02*
G01*
X168988294Y-72072989D01*
X168999500Y-72124500D01*
X168999500Y-118875500D01*
X168979815Y-118942539D01*
X168927011Y-118988294D01*
X168875500Y-118999500D01*
X109124500Y-118999500D01*
X109057461Y-118979815D01*
X109011706Y-118927011D01*
X109000500Y-118875500D01*
X109000500Y-94073920D01*
X110249499Y-94073920D01*
X110278340Y-94218907D01*
X110278343Y-94218917D01*
X110334913Y-94355490D01*
X110334914Y-94355491D01*
X110334916Y-94355495D01*
X110347226Y-94373918D01*
X110410334Y-94468368D01*
X110417051Y-94478420D01*
X110417052Y-94478421D01*
X111417049Y-95478416D01*
X111521584Y-95582951D01*
X111521587Y-95582953D01*
X111521588Y-95582954D01*
X111644503Y-95665083D01*
X111644506Y-95665085D01*
X111694665Y-95685861D01*
X111701080Y-95688518D01*
X111781088Y-95721659D01*
X111897241Y-95744763D01*
X111920380Y-95749365D01*
X111926081Y-95750500D01*
X111926082Y-95750500D01*
X111926083Y-95750500D01*
X112073918Y-95750500D01*
X113325349Y-95750500D01*
X113392388Y-95770185D01*
X113438143Y-95822989D01*
X113448087Y-95892147D01*
X113419062Y-95955703D01*
X113400835Y-95972876D01*
X113232073Y-96102370D01*
X113232066Y-96102376D01*
X113037376Y-96297066D01*
X113037370Y-96297073D01*
X112869754Y-96515516D01*
X112732080Y-96753971D01*
X112732075Y-96753982D01*
X112626704Y-97008369D01*
X112555441Y-97274331D01*
X112555438Y-97274344D01*
X112519501Y-97547315D01*
X112519500Y-97547332D01*
X112519500Y-97822667D01*
X112519501Y-97822684D01*
X112555438Y-98095655D01*
X112555439Y-98095660D01*
X112555440Y-98095666D01*
X112555441Y-98095668D01*
X112626704Y-98361630D01*
X112732075Y-98616017D01*
X112732080Y-98616028D01*
X112841580Y-98805686D01*
X112869746Y-98854471D01*
X112869753Y-98854482D01*
X112888961Y-98879515D01*
X112914154Y-98944685D01*
X112900115Y-99013130D01*
X112888961Y-99030485D01*
X112869753Y-99055517D01*
X112732080Y-99293971D01*
X112732075Y-99293982D01*
X112626704Y-99548369D01*
X112555441Y-99814331D01*
X112555438Y-99814344D01*
X112519501Y-100087315D01*
X112519500Y-100087332D01*
X112519500Y-100362667D01*
X112519501Y-100362684D01*
X112555438Y-100635655D01*
X112555439Y-100635660D01*
X112555440Y-100635666D01*
X112591072Y-100768649D01*
X112626704Y-100901630D01*
X112732075Y-101156017D01*
X112732080Y-101156028D01*
X112841580Y-101345686D01*
X112869750Y-101394478D01*
X112869753Y-101394482D01*
X112888961Y-101419515D01*
X112914154Y-101484685D01*
X112900115Y-101553130D01*
X112888961Y-101570485D01*
X112869753Y-101595517D01*
X112732080Y-101833971D01*
X112732075Y-101833982D01*
X112626704Y-102088369D01*
X112555441Y-102354331D01*
X112555438Y-102354344D01*
X112519501Y-102627315D01*
X112519500Y-102627332D01*
X112519500Y-102902667D01*
X112519501Y-102902684D01*
X112555438Y-103175655D01*
X112555439Y-103175660D01*
X112555440Y-103175666D01*
X112555441Y-103175668D01*
X112626704Y-103441630D01*
X112732075Y-103696017D01*
X112732080Y-103696028D01*
X112841580Y-103885686D01*
X112869746Y-103934471D01*
X112869753Y-103934482D01*
X112888961Y-103959515D01*
X112914154Y-104024685D01*
X112900115Y-104093130D01*
X112888961Y-104110485D01*
X112869753Y-104135517D01*
X112732080Y-104373971D01*
X112732075Y-104373982D01*
X112626704Y-104628369D01*
X112555441Y-104894331D01*
X112555438Y-104894344D01*
X112519501Y-105167315D01*
X112519500Y-105167332D01*
X112519500Y-105442667D01*
X112519501Y-105442684D01*
X112555438Y-105715655D01*
X112555439Y-105715660D01*
X112555440Y-105715666D01*
X112555441Y-105715668D01*
X112626704Y-105981630D01*
X112732075Y-106236017D01*
X112732080Y-106236028D01*
X112841580Y-106425686D01*
X112869746Y-106474471D01*
X112869753Y-106474482D01*
X112888961Y-106499515D01*
X112914154Y-106564685D01*
X112900115Y-106633130D01*
X112888961Y-106650485D01*
X112869753Y-106675517D01*
X112732080Y-106913971D01*
X112732075Y-106913982D01*
X112626704Y-107168369D01*
X112555441Y-107434331D01*
X112555438Y-107434344D01*
X112519501Y-107707315D01*
X112519500Y-107707332D01*
X112519500Y-107982667D01*
X112519501Y-107982684D01*
X112555438Y-108255655D01*
X112555439Y-108255660D01*
X112555440Y-108255666D01*
X112555441Y-108255668D01*
X112626704Y-108521630D01*
X112732075Y-108776017D01*
X112732080Y-108776028D01*
X112825919Y-108938560D01*
X112869746Y-109014471D01*
X112869753Y-109014482D01*
X112888961Y-109039515D01*
X112914154Y-109104685D01*
X112900115Y-109173130D01*
X112888961Y-109190485D01*
X112869753Y-109215517D01*
X112732080Y-109453971D01*
X112732075Y-109453982D01*
X112626704Y-109708369D01*
X112555441Y-109974331D01*
X112555438Y-109974344D01*
X112519501Y-110247315D01*
X112519500Y-110247332D01*
X112519500Y-110522667D01*
X112519501Y-110522684D01*
X112555438Y-110795655D01*
X112555439Y-110795660D01*
X112555440Y-110795666D01*
X112555441Y-110795668D01*
X112626704Y-111061630D01*
X112732075Y-111316017D01*
X112732080Y-111316028D01*
X112814861Y-111459407D01*
X112869751Y-111554479D01*
X112869753Y-111554482D01*
X112869754Y-111554483D01*
X113037370Y-111772926D01*
X113037376Y-111772933D01*
X113232066Y-111967623D01*
X113232072Y-111967628D01*
X113450521Y-112135249D01*
X113560986Y-112199026D01*
X113688971Y-112272919D01*
X113688976Y-112272921D01*
X113688979Y-112272923D01*
X113943368Y-112378295D01*
X114209334Y-112449560D01*
X114482326Y-112485500D01*
X114482333Y-112485500D01*
X115257667Y-112485500D01*
X115257674Y-112485500D01*
X115530666Y-112449560D01*
X115796632Y-112378295D01*
X116051021Y-112272923D01*
X116289479Y-112135249D01*
X116507928Y-111967628D01*
X116702628Y-111772928D01*
X116870249Y-111554479D01*
X117007923Y-111316021D01*
X117113295Y-111061632D01*
X117184560Y-110795666D01*
X117220500Y-110522674D01*
X117220500Y-110247326D01*
X117184560Y-109974334D01*
X117113295Y-109708368D01*
X117007923Y-109453979D01*
X117007921Y-109453976D01*
X117007919Y-109453971D01*
X116870253Y-109215528D01*
X116870249Y-109215521D01*
X116851038Y-109190485D01*
X116825845Y-109125318D01*
X116839883Y-109056873D01*
X116851038Y-109039515D01*
X116870249Y-109014479D01*
X117007923Y-108776021D01*
X117113295Y-108521632D01*
X117184560Y-108255666D01*
X117220500Y-107982674D01*
X117220500Y-107707326D01*
X117184560Y-107434334D01*
X117113295Y-107168368D01*
X117007923Y-106913979D01*
X117007921Y-106913976D01*
X117007919Y-106913971D01*
X116870253Y-106675528D01*
X116870249Y-106675521D01*
X116851038Y-106650485D01*
X116825845Y-106585318D01*
X116839883Y-106516873D01*
X116851038Y-106499515D01*
X116870249Y-106474479D01*
X117007923Y-106236021D01*
X117113295Y-105981632D01*
X117184560Y-105715666D01*
X117220500Y-105442674D01*
X117220500Y-105167326D01*
X117184560Y-104894334D01*
X117113295Y-104628368D01*
X117007923Y-104373979D01*
X117007921Y-104373976D01*
X117007919Y-104373971D01*
X116870253Y-104135528D01*
X116870249Y-104135521D01*
X116851038Y-104110485D01*
X116825845Y-104045318D01*
X116839883Y-103976873D01*
X116851038Y-103959515D01*
X116870249Y-103934479D01*
X117007923Y-103696021D01*
X117113295Y-103441632D01*
X117184560Y-103175666D01*
X117220500Y-102902674D01*
X117220500Y-102627326D01*
X117184560Y-102354334D01*
X117113295Y-102088368D01*
X117007923Y-101833979D01*
X117007921Y-101833976D01*
X117007919Y-101833971D01*
X116870253Y-101595528D01*
X116870249Y-101595521D01*
X116851038Y-101570485D01*
X116825845Y-101505318D01*
X116839883Y-101436873D01*
X116851038Y-101419515D01*
X116870249Y-101394479D01*
X117007923Y-101156021D01*
X117113295Y-100901632D01*
X117184560Y-100635666D01*
X117220500Y-100362674D01*
X117220500Y-100087326D01*
X117184560Y-99814334D01*
X117113295Y-99548368D01*
X117007923Y-99293979D01*
X117007921Y-99293976D01*
X117007919Y-99293971D01*
X116870253Y-99055528D01*
X116870249Y-99055521D01*
X116851038Y-99030485D01*
X116825845Y-98965318D01*
X116839883Y-98896873D01*
X116851038Y-98879515D01*
X116870249Y-98854479D01*
X117007923Y-98616021D01*
X117050991Y-98512045D01*
X117094833Y-98457643D01*
X117161127Y-98435579D01*
X117165552Y-98435500D01*
X124122770Y-98435500D01*
X124189809Y-98455185D01*
X124210451Y-98471819D01*
X129351975Y-103613343D01*
X134490245Y-108751612D01*
X134523730Y-108812935D01*
X134518746Y-108882627D01*
X134476874Y-108938560D01*
X134472067Y-108941983D01*
X134316144Y-109047515D01*
X134316132Y-109047525D01*
X134167525Y-109196132D01*
X134167521Y-109196137D01*
X134049718Y-109370191D01*
X133966987Y-109563386D01*
X133966984Y-109563397D01*
X133922312Y-109768749D01*
X133922312Y-109768755D01*
X133919500Y-109815962D01*
X133919500Y-112184038D01*
X133920393Y-112199026D01*
X133922312Y-112231250D01*
X133966984Y-112436602D01*
X133966987Y-112436613D01*
X134049718Y-112629808D01*
X134049720Y-112629811D01*
X134049721Y-112629813D01*
X134102148Y-112707274D01*
X134135125Y-112755997D01*
X134156399Y-112822550D01*
X134138315Y-112890038D01*
X134086615Y-112937037D01*
X134032434Y-112949500D01*
X130882229Y-112949500D01*
X130815190Y-112929815D01*
X130794548Y-112913181D01*
X129785582Y-111904214D01*
X129752097Y-111842891D01*
X129753488Y-111784440D01*
X129756573Y-111772926D01*
X129801270Y-111606116D01*
X129835500Y-111346120D01*
X129835500Y-110683880D01*
X129801270Y-110423884D01*
X129733398Y-110170581D01*
X129652110Y-109974334D01*
X129633046Y-109928309D01*
X129633041Y-109928299D01*
X129501924Y-109701196D01*
X129342281Y-109493148D01*
X129342274Y-109493140D01*
X129156860Y-109307726D01*
X129156851Y-109307718D01*
X128948803Y-109148075D01*
X128721700Y-109016958D01*
X128721690Y-109016953D01*
X128479428Y-108916605D01*
X128479421Y-108916603D01*
X128479419Y-108916602D01*
X128226116Y-108848730D01*
X128168339Y-108841123D01*
X127966127Y-108814500D01*
X127966120Y-108814500D01*
X127703880Y-108814500D01*
X127703872Y-108814500D01*
X127472772Y-108844926D01*
X127443884Y-108848730D01*
X127261864Y-108897502D01*
X127190581Y-108916602D01*
X127190571Y-108916605D01*
X126948309Y-109016953D01*
X126948299Y-109016958D01*
X126721196Y-109148075D01*
X126513148Y-109307718D01*
X126327718Y-109493148D01*
X126168075Y-109701196D01*
X126036958Y-109928299D01*
X126036953Y-109928309D01*
X125936605Y-110170571D01*
X125936602Y-110170581D01*
X125868730Y-110423885D01*
X125834500Y-110683872D01*
X125834500Y-111346127D01*
X125861123Y-111548339D01*
X125868730Y-111606116D01*
X125936602Y-111859418D01*
X125936605Y-111859428D01*
X126036953Y-112101690D01*
X126036958Y-112101700D01*
X126168075Y-112328803D01*
X126327718Y-112536851D01*
X126327726Y-112536860D01*
X126513140Y-112722274D01*
X126513148Y-112722281D01*
X126721196Y-112881924D01*
X126948299Y-113013041D01*
X126948309Y-113013046D01*
X127190571Y-113113394D01*
X127190581Y-113113398D01*
X127443884Y-113181270D01*
X127703880Y-113215500D01*
X127703887Y-113215500D01*
X127966113Y-113215500D01*
X127966120Y-113215500D01*
X128226116Y-113181270D01*
X128479419Y-113113398D01*
X128680491Y-113030110D01*
X128749959Y-113022642D01*
X128812438Y-113053917D01*
X128815624Y-113056991D01*
X129937048Y-114178415D01*
X129937049Y-114178416D01*
X129992047Y-114233414D01*
X130041585Y-114282952D01*
X130164498Y-114365080D01*
X130164511Y-114365087D01*
X130301082Y-114421656D01*
X130301087Y-114421658D01*
X130301091Y-114421658D01*
X130301092Y-114421659D01*
X130446079Y-114450500D01*
X130446082Y-114450500D01*
X137373920Y-114450500D01*
X137471462Y-114431096D01*
X137518913Y-114421658D01*
X137655495Y-114365084D01*
X137704729Y-114332186D01*
X137778416Y-114282952D01*
X138887703Y-113173663D01*
X138943286Y-113141572D01*
X139104419Y-113098398D01*
X139310477Y-113013046D01*
X139346690Y-112998046D01*
X139346691Y-112998045D01*
X139346697Y-112998043D01*
X139573803Y-112866924D01*
X139781851Y-112707282D01*
X139781855Y-112707277D01*
X139781860Y-112707274D01*
X139967274Y-112521860D01*
X139967277Y-112521855D01*
X139967282Y-112521851D01*
X140126924Y-112313803D01*
X140258043Y-112086697D01*
X140358398Y-111844419D01*
X140426270Y-111591116D01*
X140460500Y-111331120D01*
X140460500Y-110668880D01*
X140426270Y-110408884D01*
X140358398Y-110155581D01*
X140319166Y-110060867D01*
X140258046Y-109913309D01*
X140258041Y-109913299D01*
X140126924Y-109686196D01*
X139967281Y-109478148D01*
X139967274Y-109478140D01*
X139781860Y-109292726D01*
X139781851Y-109292718D01*
X139573803Y-109133075D01*
X139346707Y-109001962D01*
X139346702Y-109001959D01*
X139346697Y-109001957D01*
X139225362Y-108951698D01*
X139206061Y-108936143D01*
X139184400Y-108924078D01*
X139176749Y-108912522D01*
X139170960Y-108907857D01*
X139163488Y-108895646D01*
X139160602Y-108890253D01*
X139125084Y-108804505D01*
X139076360Y-108731584D01*
X139044463Y-108683845D01*
X139042954Y-108681586D01*
X139042952Y-108681584D01*
X124778421Y-94417052D01*
X124778414Y-94417046D01*
X124704729Y-94367812D01*
X124704729Y-94367813D01*
X124655491Y-94334913D01*
X124518917Y-94278343D01*
X124518907Y-94278340D01*
X124373920Y-94249500D01*
X124373918Y-94249500D01*
X116745419Y-94249500D01*
X116678380Y-94229815D01*
X116632625Y-94177011D01*
X116622681Y-94107853D01*
X116651706Y-94044297D01*
X116657738Y-94037819D01*
X116702623Y-93992933D01*
X116702628Y-93992928D01*
X116870249Y-93774479D01*
X117007923Y-93536021D01*
X117113295Y-93281632D01*
X117184560Y-93015666D01*
X117220500Y-92742674D01*
X117220500Y-92467326D01*
X117184560Y-92194334D01*
X117113295Y-91928368D01*
X117007923Y-91673979D01*
X117007921Y-91673976D01*
X117007919Y-91673971D01*
X116922533Y-91526080D01*
X116870249Y-91435521D01*
X116739470Y-91265086D01*
X116702629Y-91217073D01*
X116702623Y-91217066D01*
X116507933Y-91022376D01*
X116507926Y-91022370D01*
X116289483Y-90854754D01*
X116289482Y-90854753D01*
X116289479Y-90854751D01*
X116194407Y-90799861D01*
X116051028Y-90717080D01*
X116051017Y-90717075D01*
X115796630Y-90611704D01*
X115663649Y-90576072D01*
X115530666Y-90540440D01*
X115530660Y-90540439D01*
X115530655Y-90540438D01*
X115257684Y-90504501D01*
X115257679Y-90504500D01*
X115257674Y-90504500D01*
X114482326Y-90504500D01*
X114482320Y-90504500D01*
X114482315Y-90504501D01*
X114209344Y-90540438D01*
X114209337Y-90540439D01*
X114209334Y-90540440D01*
X114153125Y-90555500D01*
X113943369Y-90611704D01*
X113688982Y-90717075D01*
X113688971Y-90717080D01*
X113450516Y-90854754D01*
X113232073Y-91022370D01*
X113232066Y-91022376D01*
X113037376Y-91217066D01*
X113037370Y-91217073D01*
X112869754Y-91435516D01*
X112869751Y-91435520D01*
X112869751Y-91435521D01*
X112860752Y-91451106D01*
X112732080Y-91673971D01*
X112732075Y-91673982D01*
X112626704Y-91928369D01*
X112555441Y-92194331D01*
X112555438Y-92194344D01*
X112519501Y-92467315D01*
X112519500Y-92467332D01*
X112519500Y-92742667D01*
X112519501Y-92742684D01*
X112555438Y-93015655D01*
X112555439Y-93015660D01*
X112555440Y-93015666D01*
X112591072Y-93148649D01*
X112626704Y-93281630D01*
X112732075Y-93536017D01*
X112732080Y-93536028D01*
X112790822Y-93637770D01*
X112869751Y-93774479D01*
X112869753Y-93774482D01*
X112869754Y-93774483D01*
X113037370Y-93992926D01*
X113037376Y-93992933D01*
X113082262Y-94037819D01*
X113115747Y-94099142D01*
X113110763Y-94168834D01*
X113068891Y-94224767D01*
X113003427Y-94249184D01*
X112994581Y-94249500D01*
X112362229Y-94249500D01*
X112295190Y-94229815D01*
X112274548Y-94213181D01*
X111786819Y-93725451D01*
X111753334Y-93664128D01*
X111750500Y-93637770D01*
X111750500Y-84362228D01*
X111770185Y-84295189D01*
X111786815Y-84274551D01*
X112600705Y-83460660D01*
X112621249Y-83449442D01*
X112639264Y-83434487D01*
X112651344Y-83433009D01*
X112662026Y-83427177D01*
X112685378Y-83428847D01*
X112708617Y-83426005D01*
X112719577Y-83431292D01*
X112731717Y-83432161D01*
X112750458Y-83446190D01*
X112771546Y-83456364D01*
X112783026Y-83470571D01*
X112787651Y-83474033D01*
X112794091Y-83483520D01*
X112794956Y-83484932D01*
X112869751Y-83614479D01*
X112892900Y-83644648D01*
X112896291Y-83650177D01*
X112903798Y-83677897D01*
X112914154Y-83704685D01*
X112912817Y-83711199D01*
X112914556Y-83717617D01*
X112905885Y-83744994D01*
X112900115Y-83773130D01*
X112893926Y-83782758D01*
X112893462Y-83784226D01*
X112892436Y-83785077D01*
X112888961Y-83790485D01*
X112869753Y-83815517D01*
X112732080Y-84053971D01*
X112732075Y-84053982D01*
X112626704Y-84308369D01*
X112555441Y-84574331D01*
X112555438Y-84574344D01*
X112519501Y-84847315D01*
X112519500Y-84847332D01*
X112519500Y-85122667D01*
X112519501Y-85122684D01*
X112555438Y-85395655D01*
X112555439Y-85395660D01*
X112555440Y-85395666D01*
X112555441Y-85395668D01*
X112626704Y-85661630D01*
X112732075Y-85916017D01*
X112732080Y-85916028D01*
X112814861Y-86059407D01*
X112869751Y-86154479D01*
X112869753Y-86154482D01*
X112869754Y-86154483D01*
X113037370Y-86372926D01*
X113037376Y-86372933D01*
X113232066Y-86567623D01*
X113232072Y-86567628D01*
X113450521Y-86735249D01*
X113603778Y-86823732D01*
X113688971Y-86872919D01*
X113688976Y-86872921D01*
X113688979Y-86872923D01*
X113943368Y-86978295D01*
X114209334Y-87049560D01*
X114482326Y-87085500D01*
X114482333Y-87085500D01*
X115257667Y-87085500D01*
X115257674Y-87085500D01*
X115530666Y-87049560D01*
X115796632Y-86978295D01*
X116051021Y-86872923D01*
X116289479Y-86735249D01*
X116507928Y-86567628D01*
X116702628Y-86372928D01*
X116870249Y-86154479D01*
X117007923Y-85916021D01*
X117050991Y-85812045D01*
X117094833Y-85757643D01*
X117161127Y-85735579D01*
X117165552Y-85735500D01*
X119522770Y-85735500D01*
X119589809Y-85755185D01*
X119610451Y-85771819D01*
X129142048Y-95303415D01*
X129142049Y-95303416D01*
X129246584Y-95407951D01*
X129246585Y-95407952D01*
X129369498Y-95490080D01*
X129369511Y-95490087D01*
X129506082Y-95546656D01*
X129506087Y-95546658D01*
X129506091Y-95546658D01*
X129506092Y-95546659D01*
X129651079Y-95575500D01*
X129651082Y-95575500D01*
X133962770Y-95575500D01*
X134029809Y-95595185D01*
X134050451Y-95611819D01*
X135224463Y-96785831D01*
X135257948Y-96847154D01*
X135252964Y-96916846D01*
X135212274Y-96971883D01*
X135204232Y-96978054D01*
X135204218Y-96978066D01*
X135028066Y-97154218D01*
X135028060Y-97154225D01*
X134876400Y-97351873D01*
X134751837Y-97567623D01*
X134751830Y-97567638D01*
X134656498Y-97797792D01*
X134592017Y-98038438D01*
X134559501Y-98285424D01*
X134559500Y-98285441D01*
X134559500Y-99334558D01*
X134559501Y-99334575D01*
X134592017Y-99581561D01*
X134656498Y-99822207D01*
X134751830Y-100052361D01*
X134751837Y-100052376D01*
X134876400Y-100268126D01*
X135028060Y-100465774D01*
X135028066Y-100465781D01*
X135204218Y-100641933D01*
X135204225Y-100641939D01*
X135401873Y-100793599D01*
X135617623Y-100918162D01*
X135617638Y-100918169D01*
X135706132Y-100954824D01*
X135847793Y-101013502D01*
X136088435Y-101077982D01*
X136335435Y-101110500D01*
X136335442Y-101110500D01*
X136584558Y-101110500D01*
X136584565Y-101110500D01*
X136831565Y-101077982D01*
X137072207Y-101013502D01*
X137302373Y-100918164D01*
X137518127Y-100793599D01*
X137654514Y-100688946D01*
X137719683Y-100663752D01*
X137788128Y-100677790D01*
X137805486Y-100688946D01*
X137941873Y-100793599D01*
X138157623Y-100918162D01*
X138157624Y-100918162D01*
X138157627Y-100918164D01*
X138163180Y-100920464D01*
X138172950Y-100924511D01*
X138227354Y-100968351D01*
X138249421Y-101034644D01*
X138249500Y-101039073D01*
X138249500Y-101073918D01*
X138249500Y-101073920D01*
X138249499Y-101073920D01*
X138278340Y-101218907D01*
X138278343Y-101218917D01*
X138334914Y-101355491D01*
X138334916Y-101355495D01*
X138352358Y-101381599D01*
X138360963Y-101394478D01*
X138417049Y-101478418D01*
X138417052Y-101478421D01*
X146963181Y-110024548D01*
X146996666Y-110085871D01*
X146999500Y-110112229D01*
X146999500Y-112184038D01*
X147000393Y-112199026D01*
X147002312Y-112231250D01*
X147046984Y-112436602D01*
X147046987Y-112436613D01*
X147129718Y-112629808D01*
X147129720Y-112629811D01*
X147129721Y-112629813D01*
X147247523Y-112803865D01*
X147396135Y-112952477D01*
X147570187Y-113070279D01*
X147570189Y-113070280D01*
X147570191Y-113070281D01*
X147670869Y-113113394D01*
X147763388Y-113153013D01*
X147763396Y-113153014D01*
X147763397Y-113153015D01*
X147968749Y-113197687D01*
X147968750Y-113197687D01*
X147968755Y-113197688D01*
X148015962Y-113200500D01*
X148015973Y-113200500D01*
X149984027Y-113200500D01*
X149984038Y-113200500D01*
X150031245Y-113197688D01*
X150236612Y-113153013D01*
X150429813Y-113070279D01*
X150526059Y-113005136D01*
X150592610Y-112983862D01*
X150650403Y-112996614D01*
X150653293Y-112998039D01*
X150863914Y-113085281D01*
X150895581Y-113098398D01*
X151148884Y-113166270D01*
X151408880Y-113200500D01*
X151408887Y-113200500D01*
X151671113Y-113200500D01*
X151671120Y-113200500D01*
X151931116Y-113166270D01*
X152184419Y-113098398D01*
X152390477Y-113013046D01*
X152426690Y-112998046D01*
X152426691Y-112998045D01*
X152426697Y-112998043D01*
X152653803Y-112866924D01*
X152861851Y-112707282D01*
X152861855Y-112707277D01*
X152861860Y-112707274D01*
X153047274Y-112521860D01*
X153047277Y-112521855D01*
X153047282Y-112521851D01*
X153206924Y-112313803D01*
X153338043Y-112086697D01*
X153438398Y-111844419D01*
X153506270Y-111591116D01*
X153540500Y-111331120D01*
X153540500Y-110668880D01*
X153506270Y-110408884D01*
X153438398Y-110155581D01*
X153399166Y-110060867D01*
X153338046Y-109913309D01*
X153338041Y-109913299D01*
X153206924Y-109686196D01*
X153047281Y-109478148D01*
X153047274Y-109478140D01*
X152861860Y-109292726D01*
X152861851Y-109292718D01*
X152653803Y-109133075D01*
X152426700Y-109001958D01*
X152426690Y-109001953D01*
X152280364Y-108941343D01*
X152225961Y-108897502D01*
X152213255Y-108874232D01*
X152205085Y-108854508D01*
X152205084Y-108854505D01*
X152205082Y-108854502D01*
X152205080Y-108854498D01*
X152122952Y-108731585D01*
X152072951Y-108681584D01*
X152018416Y-108627049D01*
X150825698Y-107434331D01*
X147143421Y-103752052D01*
X147143414Y-103752046D01*
X147059564Y-103696020D01*
X147059563Y-103696020D01*
X147020501Y-103669919D01*
X147020488Y-103669912D01*
X146883917Y-103613343D01*
X146883907Y-103613340D01*
X146738920Y-103584500D01*
X146738918Y-103584500D01*
X145697230Y-103584500D01*
X145630191Y-103564815D01*
X145609549Y-103548181D01*
X143237833Y-101176465D01*
X143204348Y-101115142D01*
X143209332Y-101045450D01*
X143251204Y-100989517D01*
X143316668Y-100965100D01*
X143372964Y-100974222D01*
X143467793Y-101013502D01*
X143708435Y-101077982D01*
X143955435Y-101110500D01*
X143955442Y-101110500D01*
X144204558Y-101110500D01*
X144204565Y-101110500D01*
X144451565Y-101077982D01*
X144692207Y-101013502D01*
X144922373Y-100918164D01*
X145138127Y-100793599D01*
X145335776Y-100641938D01*
X145511938Y-100465776D01*
X145663599Y-100268127D01*
X145788164Y-100052373D01*
X145883502Y-99822207D01*
X145947982Y-99581565D01*
X145980500Y-99334565D01*
X145980500Y-98285435D01*
X145947982Y-98038435D01*
X145883502Y-97797793D01*
X145788164Y-97567627D01*
X145776443Y-97547326D01*
X145663599Y-97351873D01*
X145511939Y-97154225D01*
X145511933Y-97154218D01*
X145335781Y-96978066D01*
X145335774Y-96978060D01*
X145138126Y-96826400D01*
X144922376Y-96701837D01*
X144922361Y-96701830D01*
X144692207Y-96606498D01*
X144451561Y-96542017D01*
X144204575Y-96509501D01*
X144204570Y-96509500D01*
X144204565Y-96509500D01*
X143955435Y-96509500D01*
X143955429Y-96509500D01*
X143955424Y-96509501D01*
X143708438Y-96542017D01*
X143467792Y-96606498D01*
X143237638Y-96701830D01*
X143237623Y-96701837D01*
X143021873Y-96826400D01*
X142885486Y-96931053D01*
X142820317Y-96956247D01*
X142751872Y-96942208D01*
X142734514Y-96931053D01*
X142598126Y-96826400D01*
X142382376Y-96701837D01*
X142382361Y-96701830D01*
X142152207Y-96606498D01*
X141911561Y-96542017D01*
X141664575Y-96509501D01*
X141664570Y-96509500D01*
X141664565Y-96509500D01*
X141415435Y-96509500D01*
X141415429Y-96509500D01*
X141415424Y-96509501D01*
X141168438Y-96542017D01*
X140927792Y-96606498D01*
X140697638Y-96701830D01*
X140697623Y-96701837D01*
X140481873Y-96826400D01*
X140345486Y-96931053D01*
X140280317Y-96956247D01*
X140211872Y-96942208D01*
X140194514Y-96931053D01*
X140058126Y-96826400D01*
X139842376Y-96701837D01*
X139842361Y-96701830D01*
X139612207Y-96606498D01*
X139371561Y-96542017D01*
X139124575Y-96509501D01*
X139124570Y-96509500D01*
X139124565Y-96509500D01*
X138875435Y-96509500D01*
X138875429Y-96509500D01*
X138875424Y-96509501D01*
X138628438Y-96542017D01*
X138387792Y-96606498D01*
X138157638Y-96701830D01*
X138157623Y-96701837D01*
X137941873Y-96826400D01*
X137805486Y-96931053D01*
X137740317Y-96956247D01*
X137671872Y-96942208D01*
X137654514Y-96931053D01*
X137518126Y-96826400D01*
X137302376Y-96701837D01*
X137302366Y-96701833D01*
X137181911Y-96651939D01*
X137167184Y-96640071D01*
X137149847Y-96632525D01*
X137128945Y-96609256D01*
X137127508Y-96608098D01*
X137126262Y-96606269D01*
X137125085Y-96604507D01*
X137125084Y-96604505D01*
X137061604Y-96509500D01*
X137048901Y-96490487D01*
X137042954Y-96481586D01*
X137042950Y-96481582D01*
X134803421Y-94242052D01*
X134803414Y-94242046D01*
X134721969Y-94187627D01*
X134721968Y-94187627D01*
X134680501Y-94159919D01*
X134680488Y-94159912D01*
X134543917Y-94103343D01*
X134543907Y-94103340D01*
X134398920Y-94074500D01*
X134398918Y-94074500D01*
X130087229Y-94074500D01*
X130020190Y-94054815D01*
X129999548Y-94038181D01*
X120363421Y-84402052D01*
X120363420Y-84402051D01*
X120354406Y-84396028D01*
X120259961Y-84332923D01*
X120240495Y-84319916D01*
X120240491Y-84319914D01*
X120240489Y-84319913D01*
X120103917Y-84263343D01*
X120103907Y-84263340D01*
X119958920Y-84234500D01*
X119958918Y-84234500D01*
X117165552Y-84234500D01*
X117098513Y-84214815D01*
X117052758Y-84162011D01*
X117050991Y-84157954D01*
X117044230Y-84141632D01*
X117007923Y-84053979D01*
X116870249Y-83815521D01*
X116851038Y-83790485D01*
X116825845Y-83725318D01*
X116839883Y-83656873D01*
X116851035Y-83639517D01*
X116870249Y-83614479D01*
X117007923Y-83376021D01*
X117050991Y-83272045D01*
X117094833Y-83217643D01*
X117161127Y-83195579D01*
X117165552Y-83195500D01*
X133082770Y-83195500D01*
X133149809Y-83215185D01*
X133170451Y-83231819D01*
X135673181Y-85734549D01*
X135706666Y-85795872D01*
X135709500Y-85822230D01*
X135709500Y-88960926D01*
X135689815Y-89027965D01*
X135637011Y-89073720D01*
X135632958Y-89075485D01*
X135617628Y-89081835D01*
X135617616Y-89081841D01*
X135401873Y-89206400D01*
X135204225Y-89358060D01*
X135204218Y-89358066D01*
X135028066Y-89534218D01*
X135028060Y-89534225D01*
X134876400Y-89731873D01*
X134751837Y-89947623D01*
X134751830Y-89947638D01*
X134656498Y-90177792D01*
X134592017Y-90418438D01*
X134559501Y-90665424D01*
X134559500Y-90665441D01*
X134559500Y-91714558D01*
X134559501Y-91714575D01*
X134592017Y-91961561D01*
X134656498Y-92202207D01*
X134751830Y-92432361D01*
X134751837Y-92432376D01*
X134876400Y-92648126D01*
X135028060Y-92845774D01*
X135028066Y-92845781D01*
X135204218Y-93021933D01*
X135204225Y-93021939D01*
X135401873Y-93173599D01*
X135617623Y-93298162D01*
X135617638Y-93298169D01*
X135686420Y-93326659D01*
X135847793Y-93393502D01*
X136088435Y-93457982D01*
X136335435Y-93490500D01*
X136335442Y-93490500D01*
X136584558Y-93490500D01*
X136584565Y-93490500D01*
X136831565Y-93457982D01*
X137072207Y-93393502D01*
X137302373Y-93298164D01*
X137518127Y-93173599D01*
X137654514Y-93068946D01*
X137719683Y-93043752D01*
X137788128Y-93057790D01*
X137805486Y-93068946D01*
X137941873Y-93173599D01*
X138157623Y-93298162D01*
X138157638Y-93298169D01*
X138226420Y-93326659D01*
X138387793Y-93393502D01*
X138628435Y-93457982D01*
X138875435Y-93490500D01*
X138875442Y-93490500D01*
X139124558Y-93490500D01*
X139124565Y-93490500D01*
X139371565Y-93457982D01*
X139612207Y-93393502D01*
X139842373Y-93298164D01*
X140058127Y-93173599D01*
X140194514Y-93068946D01*
X140259683Y-93043752D01*
X140328128Y-93057790D01*
X140345486Y-93068946D01*
X140481873Y-93173599D01*
X140697623Y-93298162D01*
X140697638Y-93298169D01*
X140766420Y-93326659D01*
X140927793Y-93393502D01*
X141168435Y-93457982D01*
X141415435Y-93490500D01*
X141415442Y-93490500D01*
X141664558Y-93490500D01*
X141664565Y-93490500D01*
X141911565Y-93457982D01*
X142152207Y-93393502D01*
X142382373Y-93298164D01*
X142598127Y-93173599D01*
X142734514Y-93068946D01*
X142799683Y-93043752D01*
X142868128Y-93057790D01*
X142885486Y-93068946D01*
X143021873Y-93173599D01*
X143237623Y-93298162D01*
X143237638Y-93298169D01*
X143306420Y-93326659D01*
X143467793Y-93393502D01*
X143708435Y-93457982D01*
X143955435Y-93490500D01*
X143955442Y-93490500D01*
X144204558Y-93490500D01*
X144204565Y-93490500D01*
X144451565Y-93457982D01*
X144692207Y-93393502D01*
X144922373Y-93298164D01*
X145138127Y-93173599D01*
X145335776Y-93021938D01*
X145511938Y-92845776D01*
X145663599Y-92648127D01*
X145788164Y-92432373D01*
X145883502Y-92202207D01*
X145947982Y-91961565D01*
X145980500Y-91714565D01*
X145980500Y-90665435D01*
X145947982Y-90418435D01*
X145883502Y-90177793D01*
X145816921Y-90017052D01*
X145788169Y-89947638D01*
X145788162Y-89947623D01*
X145663599Y-89731873D01*
X145524033Y-89549986D01*
X145498839Y-89484817D01*
X145512877Y-89416372D01*
X145561691Y-89366383D01*
X145622409Y-89350500D01*
X151037770Y-89350500D01*
X151104809Y-89370185D01*
X151125451Y-89386819D01*
X152983138Y-91244505D01*
X154822048Y-93083415D01*
X154822049Y-93083416D01*
X154912232Y-93173599D01*
X154926585Y-93187952D01*
X155049498Y-93270080D01*
X155049511Y-93270087D01*
X155117291Y-93298162D01*
X155186087Y-93326658D01*
X155186091Y-93326658D01*
X155186092Y-93326659D01*
X155331079Y-93355500D01*
X155331082Y-93355500D01*
X160834448Y-93355500D01*
X160901487Y-93375185D01*
X160947242Y-93427989D01*
X160949003Y-93432032D01*
X160992077Y-93536021D01*
X160992080Y-93536026D01*
X160992082Y-93536031D01*
X161129753Y-93774482D01*
X161148961Y-93799515D01*
X161174154Y-93864685D01*
X161160115Y-93933130D01*
X161148961Y-93950485D01*
X161129753Y-93975517D01*
X160992080Y-94213971D01*
X160992075Y-94213982D01*
X160886704Y-94468369D01*
X160815441Y-94734331D01*
X160815438Y-94734344D01*
X160779501Y-95007315D01*
X160779500Y-95007332D01*
X160779500Y-95282667D01*
X160779501Y-95282684D01*
X160815438Y-95555655D01*
X160815439Y-95555660D01*
X160815440Y-95555666D01*
X160822751Y-95582951D01*
X160886704Y-95821630D01*
X160992075Y-96076017D01*
X160992080Y-96076028D01*
X161101580Y-96265686D01*
X161129746Y-96314471D01*
X161129753Y-96314482D01*
X161148961Y-96339515D01*
X161174154Y-96404685D01*
X161160115Y-96473130D01*
X161148961Y-96490485D01*
X161129753Y-96515517D01*
X160992080Y-96753971D01*
X160992075Y-96753982D01*
X160886704Y-97008369D01*
X160815441Y-97274331D01*
X160815438Y-97274344D01*
X160779501Y-97547315D01*
X160779500Y-97547332D01*
X160779500Y-97822667D01*
X160779501Y-97822684D01*
X160815438Y-98095655D01*
X160815439Y-98095660D01*
X160815440Y-98095666D01*
X160815441Y-98095668D01*
X160886704Y-98361630D01*
X160992075Y-98616017D01*
X160992080Y-98616028D01*
X161101580Y-98805686D01*
X161129746Y-98854471D01*
X161129753Y-98854482D01*
X161148961Y-98879515D01*
X161174154Y-98944685D01*
X161160115Y-99013130D01*
X161148961Y-99030485D01*
X161129753Y-99055517D01*
X160992080Y-99293971D01*
X160992075Y-99293982D01*
X160886704Y-99548369D01*
X160815441Y-99814331D01*
X160815438Y-99814344D01*
X160779501Y-100087315D01*
X160779500Y-100087332D01*
X160779500Y-100362667D01*
X160779501Y-100362684D01*
X160815438Y-100635655D01*
X160815439Y-100635660D01*
X160815440Y-100635666D01*
X160851072Y-100768649D01*
X160886704Y-100901630D01*
X160992075Y-101156017D01*
X160992080Y-101156028D01*
X161101580Y-101345686D01*
X161129750Y-101394478D01*
X161129753Y-101394482D01*
X161148961Y-101419515D01*
X161174154Y-101484685D01*
X161160115Y-101553130D01*
X161148961Y-101570485D01*
X161129753Y-101595517D01*
X160992080Y-101833971D01*
X160992075Y-101833982D01*
X160886704Y-102088369D01*
X160815441Y-102354331D01*
X160815438Y-102354344D01*
X160779501Y-102627315D01*
X160779500Y-102627332D01*
X160779500Y-102902667D01*
X160779501Y-102902684D01*
X160815438Y-103175655D01*
X160815439Y-103175660D01*
X160815440Y-103175666D01*
X160815441Y-103175668D01*
X160886704Y-103441630D01*
X160992075Y-103696017D01*
X160992080Y-103696028D01*
X161101580Y-103885686D01*
X161129746Y-103934471D01*
X161129753Y-103934482D01*
X161148961Y-103959515D01*
X161174154Y-104024685D01*
X161160115Y-104093130D01*
X161148961Y-104110485D01*
X161129753Y-104135517D01*
X160992080Y-104373971D01*
X160992075Y-104373982D01*
X160886704Y-104628369D01*
X160815441Y-104894331D01*
X160815438Y-104894344D01*
X160779501Y-105167315D01*
X160779500Y-105167332D01*
X160779500Y-105442667D01*
X160779501Y-105442684D01*
X160815438Y-105715655D01*
X160815439Y-105715660D01*
X160815440Y-105715666D01*
X160815441Y-105715668D01*
X160886704Y-105981630D01*
X160992075Y-106236017D01*
X160992080Y-106236028D01*
X161101580Y-106425686D01*
X161129746Y-106474471D01*
X161129753Y-106474482D01*
X161148961Y-106499515D01*
X161174154Y-106564685D01*
X161160115Y-106633130D01*
X161148961Y-106650485D01*
X161129753Y-106675517D01*
X160992080Y-106913971D01*
X160992075Y-106913982D01*
X160886704Y-107168369D01*
X160815441Y-107434331D01*
X160815438Y-107434344D01*
X160779501Y-107707315D01*
X160779500Y-107707332D01*
X160779500Y-107982667D01*
X160779501Y-107982684D01*
X160815438Y-108255655D01*
X160815439Y-108255660D01*
X160815440Y-108255666D01*
X160815441Y-108255668D01*
X160886704Y-108521630D01*
X160992075Y-108776017D01*
X160992080Y-108776028D01*
X161085919Y-108938560D01*
X161129746Y-109014471D01*
X161129753Y-109014482D01*
X161148961Y-109039515D01*
X161174154Y-109104685D01*
X161160115Y-109173130D01*
X161148961Y-109190485D01*
X161129753Y-109215517D01*
X160992080Y-109453971D01*
X160992075Y-109453982D01*
X160886704Y-109708369D01*
X160815441Y-109974331D01*
X160815438Y-109974344D01*
X160779501Y-110247315D01*
X160779500Y-110247332D01*
X160779500Y-110522667D01*
X160779501Y-110522684D01*
X160815438Y-110795655D01*
X160815439Y-110795660D01*
X160815440Y-110795666D01*
X160815441Y-110795668D01*
X160886704Y-111061630D01*
X160992075Y-111316017D01*
X160992080Y-111316028D01*
X161074861Y-111459407D01*
X161129751Y-111554479D01*
X161129753Y-111554482D01*
X161129754Y-111554483D01*
X161297370Y-111772926D01*
X161297376Y-111772933D01*
X161492066Y-111967623D01*
X161492072Y-111967628D01*
X161710521Y-112135249D01*
X161820986Y-112199026D01*
X161948971Y-112272919D01*
X161948976Y-112272921D01*
X161948979Y-112272923D01*
X162203368Y-112378295D01*
X162287595Y-112400863D01*
X162347253Y-112437226D01*
X162377783Y-112500073D01*
X162379500Y-112520637D01*
X162379500Y-113507770D01*
X162359815Y-113574809D01*
X162343181Y-113595451D01*
X161125451Y-114813181D01*
X161064128Y-114846666D01*
X161037770Y-114849500D01*
X124962230Y-114849500D01*
X124895191Y-114829815D01*
X124874549Y-114813181D01*
X123541819Y-113480451D01*
X123527115Y-113453523D01*
X123510523Y-113427705D01*
X123509631Y-113421504D01*
X123508334Y-113419128D01*
X123505500Y-113392770D01*
X123505500Y-113152311D01*
X123525185Y-113085272D01*
X123577989Y-113039517D01*
X123582014Y-113037763D01*
X123641697Y-113013043D01*
X123868803Y-112881924D01*
X124076851Y-112722282D01*
X124076855Y-112722277D01*
X124076860Y-112722274D01*
X124262274Y-112536860D01*
X124262277Y-112536855D01*
X124262282Y-112536851D01*
X124421924Y-112328803D01*
X124553043Y-112101697D01*
X124653398Y-111859419D01*
X124721270Y-111606116D01*
X124755500Y-111346120D01*
X124755500Y-110683880D01*
X124721270Y-110423884D01*
X124653398Y-110170581D01*
X124572110Y-109974334D01*
X124553046Y-109928309D01*
X124553041Y-109928299D01*
X124421924Y-109701196D01*
X124262281Y-109493148D01*
X124262274Y-109493140D01*
X124076860Y-109307726D01*
X124076851Y-109307718D01*
X123868803Y-109148075D01*
X123641700Y-109016958D01*
X123641690Y-109016953D01*
X123399428Y-108916605D01*
X123399421Y-108916603D01*
X123399419Y-108916602D01*
X123146116Y-108848730D01*
X123088339Y-108841123D01*
X122886127Y-108814500D01*
X122886120Y-108814500D01*
X122623880Y-108814500D01*
X122623872Y-108814500D01*
X122392772Y-108844926D01*
X122363884Y-108848730D01*
X122181864Y-108897502D01*
X122110581Y-108916602D01*
X122110571Y-108916605D01*
X121868293Y-109016960D01*
X121865403Y-109018386D01*
X121796571Y-109030381D01*
X121741062Y-109009864D01*
X121644813Y-108944721D01*
X121644810Y-108944719D01*
X121644809Y-108944719D01*
X121451613Y-108861987D01*
X121451602Y-108861984D01*
X121246250Y-108817312D01*
X121231492Y-108816433D01*
X121199038Y-108814500D01*
X119230962Y-108814500D01*
X119200416Y-108816319D01*
X119183749Y-108817312D01*
X118978397Y-108861984D01*
X118978386Y-108861987D01*
X118785191Y-108944718D01*
X118611137Y-109062521D01*
X118611132Y-109062525D01*
X118462525Y-109211132D01*
X118462521Y-109211137D01*
X118344718Y-109385191D01*
X118261987Y-109578386D01*
X118261984Y-109578397D01*
X118217312Y-109783749D01*
X118217312Y-109783755D01*
X118214500Y-109830962D01*
X118214500Y-112199038D01*
X118216419Y-112231250D01*
X118217312Y-112246250D01*
X118261984Y-112451602D01*
X118261987Y-112451613D01*
X118344718Y-112644808D01*
X118344720Y-112644811D01*
X118344721Y-112644813D01*
X118462523Y-112818865D01*
X118611135Y-112967477D01*
X118785187Y-113085279D01*
X118785189Y-113085280D01*
X118785191Y-113085281D01*
X118913987Y-113140435D01*
X118978388Y-113168013D01*
X118978396Y-113168014D01*
X118978397Y-113168015D01*
X119183749Y-113212687D01*
X119183750Y-113212687D01*
X119183755Y-113212688D01*
X119230962Y-113215500D01*
X119340500Y-113215500D01*
X119407539Y-113235185D01*
X119453294Y-113287989D01*
X119464500Y-113339500D01*
X119464500Y-115288918D01*
X119464500Y-115288920D01*
X119464499Y-115288920D01*
X119493340Y-115433907D01*
X119493343Y-115433917D01*
X119549913Y-115570490D01*
X119549918Y-115570498D01*
X119558239Y-115582953D01*
X119632046Y-115693414D01*
X119632052Y-115693421D01*
X121521580Y-117582948D01*
X121521584Y-117582951D01*
X121644498Y-117665080D01*
X121644511Y-117665087D01*
X121781082Y-117721656D01*
X121781087Y-117721658D01*
X121781091Y-117721658D01*
X121781092Y-117721659D01*
X121926079Y-117750500D01*
X121926082Y-117750500D01*
X165073920Y-117750500D01*
X165171462Y-117731096D01*
X165218913Y-117721658D01*
X165355495Y-117665084D01*
X165404729Y-117632186D01*
X165478416Y-117582952D01*
X167582951Y-115478416D01*
X167592998Y-115463378D01*
X167612687Y-115433914D01*
X167612687Y-115433913D01*
X167612691Y-115433907D01*
X167665084Y-115355495D01*
X167721658Y-115218913D01*
X167750500Y-115073918D01*
X167750500Y-108926082D01*
X167750101Y-108924078D01*
X167744027Y-108893543D01*
X167742856Y-108887656D01*
X167721659Y-108781088D01*
X167681379Y-108683845D01*
X167665084Y-108644505D01*
X167598541Y-108544916D01*
X167582952Y-108521585D01*
X167582950Y-108521582D01*
X167582947Y-108521579D01*
X166323421Y-107262052D01*
X166323420Y-107262051D01*
X166219962Y-107192924D01*
X166219961Y-107192923D01*
X166200495Y-107179916D01*
X166200491Y-107179914D01*
X166200489Y-107179913D01*
X166063917Y-107123343D01*
X166063907Y-107123340D01*
X165918920Y-107094500D01*
X165918918Y-107094500D01*
X165425552Y-107094500D01*
X165358513Y-107074815D01*
X165312758Y-107022011D01*
X165310991Y-107017954D01*
X165267923Y-106913979D01*
X165130249Y-106675521D01*
X165111038Y-106650485D01*
X165085845Y-106585318D01*
X165099883Y-106516873D01*
X165111038Y-106499515D01*
X165130249Y-106474479D01*
X165267923Y-106236021D01*
X165373295Y-105981632D01*
X165444560Y-105715666D01*
X165480500Y-105442674D01*
X165480500Y-105167326D01*
X165444560Y-104894334D01*
X165373295Y-104628368D01*
X165267923Y-104373979D01*
X165267921Y-104373976D01*
X165267919Y-104373971D01*
X165130253Y-104135528D01*
X165130249Y-104135521D01*
X165111038Y-104110485D01*
X165085845Y-104045318D01*
X165099883Y-103976873D01*
X165111038Y-103959515D01*
X165130249Y-103934479D01*
X165267923Y-103696021D01*
X165373295Y-103441632D01*
X165444560Y-103175666D01*
X165480500Y-102902674D01*
X165480500Y-102627326D01*
X165444560Y-102354334D01*
X165373295Y-102088368D01*
X165267923Y-101833979D01*
X165267921Y-101833976D01*
X165267919Y-101833971D01*
X165130253Y-101595528D01*
X165130249Y-101595521D01*
X165111038Y-101570485D01*
X165085845Y-101505318D01*
X165099883Y-101436873D01*
X165111038Y-101419515D01*
X165130249Y-101394479D01*
X165267923Y-101156021D01*
X165373295Y-100901632D01*
X165444560Y-100635666D01*
X165480500Y-100362674D01*
X165480500Y-100087326D01*
X165444560Y-99814334D01*
X165373295Y-99548368D01*
X165267923Y-99293979D01*
X165267921Y-99293976D01*
X165267919Y-99293971D01*
X165130253Y-99055528D01*
X165130249Y-99055521D01*
X165111038Y-99030485D01*
X165085845Y-98965318D01*
X165099883Y-98896873D01*
X165111038Y-98879515D01*
X165130249Y-98854479D01*
X165267923Y-98616021D01*
X165373295Y-98361632D01*
X165444560Y-98095666D01*
X165480500Y-97822674D01*
X165480500Y-97547326D01*
X165444560Y-97274334D01*
X165373295Y-97008368D01*
X165267923Y-96753979D01*
X165267921Y-96753976D01*
X165267919Y-96753971D01*
X165130253Y-96515528D01*
X165130249Y-96515521D01*
X165111038Y-96490485D01*
X165085845Y-96425318D01*
X165099883Y-96356873D01*
X165111038Y-96339515D01*
X165130249Y-96314479D01*
X165267923Y-96076021D01*
X165373295Y-95821632D01*
X165378680Y-95801533D01*
X165415041Y-95741876D01*
X165429563Y-95730526D01*
X165433416Y-95727952D01*
X166382951Y-94778416D01*
X166465084Y-94655495D01*
X166521658Y-94518913D01*
X166529415Y-94479916D01*
X166550500Y-94373918D01*
X166550500Y-91526082D01*
X166532486Y-91435521D01*
X166521659Y-91381088D01*
X166465988Y-91246689D01*
X166465393Y-91244967D01*
X166382954Y-91121588D01*
X166382953Y-91121587D01*
X166382951Y-91121584D01*
X166278416Y-91017049D01*
X166116118Y-90854751D01*
X165278421Y-90017052D01*
X165278420Y-90017051D01*
X165278416Y-90017048D01*
X165174518Y-89947627D01*
X165155495Y-89934916D01*
X165148564Y-89932045D01*
X165140483Y-89927149D01*
X165123018Y-89908040D01*
X165102868Y-89891796D01*
X165099833Y-89882673D01*
X165093346Y-89875575D01*
X165088985Y-89850059D01*
X165080815Y-89825498D01*
X165083194Y-89816181D01*
X165081575Y-89806704D01*
X165091700Y-89782882D01*
X165098107Y-89757802D01*
X165106353Y-89745619D01*
X165130249Y-89714479D01*
X165267923Y-89476021D01*
X165373295Y-89221632D01*
X165444560Y-88955666D01*
X165480500Y-88682674D01*
X165480500Y-88407326D01*
X165444560Y-88134334D01*
X165373295Y-87868368D01*
X165267923Y-87613979D01*
X165267921Y-87613976D01*
X165267919Y-87613971D01*
X165130253Y-87375528D01*
X165130249Y-87375521D01*
X165111038Y-87350485D01*
X165085845Y-87285318D01*
X165099883Y-87216873D01*
X165111038Y-87199515D01*
X165130249Y-87174479D01*
X165267923Y-86936021D01*
X165373295Y-86681632D01*
X165444560Y-86415666D01*
X165480500Y-86142674D01*
X165480500Y-85867326D01*
X165444560Y-85594334D01*
X165373295Y-85328368D01*
X165267923Y-85073979D01*
X165267921Y-85073976D01*
X165267919Y-85073971D01*
X165130253Y-84835528D01*
X165130249Y-84835521D01*
X165111038Y-84810485D01*
X165085845Y-84745318D01*
X165099883Y-84676873D01*
X165111038Y-84659515D01*
X165130249Y-84634479D01*
X165267923Y-84396021D01*
X165373295Y-84141632D01*
X165444560Y-83875666D01*
X165480500Y-83602674D01*
X165480500Y-83327326D01*
X165444560Y-83054334D01*
X165373295Y-82788368D01*
X165267923Y-82533979D01*
X165267921Y-82533976D01*
X165267919Y-82533971D01*
X165130253Y-82295528D01*
X165130249Y-82295521D01*
X165111038Y-82270485D01*
X165085845Y-82205318D01*
X165099883Y-82136873D01*
X165111038Y-82119515D01*
X165130249Y-82094479D01*
X165267923Y-81856021D01*
X165373295Y-81601632D01*
X165444560Y-81335666D01*
X165480500Y-81062674D01*
X165480500Y-80787326D01*
X165444560Y-80514334D01*
X165373295Y-80248368D01*
X165267923Y-79993979D01*
X165267921Y-79993976D01*
X165267919Y-79993971D01*
X165130253Y-79755528D01*
X165130249Y-79755521D01*
X165111038Y-79730485D01*
X165085845Y-79665318D01*
X165099883Y-79596873D01*
X165111038Y-79579515D01*
X165130249Y-79554479D01*
X165267923Y-79316021D01*
X165373295Y-79061632D01*
X165444560Y-78795666D01*
X165480500Y-78522674D01*
X165480500Y-78247326D01*
X165444560Y-77974334D01*
X165373295Y-77708368D01*
X165267923Y-77453979D01*
X165267921Y-77453976D01*
X165267919Y-77453971D01*
X165130253Y-77215528D01*
X165130249Y-77215521D01*
X165111038Y-77190485D01*
X165085845Y-77125318D01*
X165099883Y-77056873D01*
X165111038Y-77039515D01*
X165130249Y-77014479D01*
X165267923Y-76776021D01*
X165373295Y-76521632D01*
X165444560Y-76255666D01*
X165480500Y-75982674D01*
X165480500Y-75707326D01*
X165444560Y-75434334D01*
X165373295Y-75168368D01*
X165267923Y-74913979D01*
X165267921Y-74913976D01*
X165267919Y-74913971D01*
X165218732Y-74828778D01*
X165130249Y-74675521D01*
X164962628Y-74457072D01*
X164962623Y-74457066D01*
X164767933Y-74262376D01*
X164767926Y-74262370D01*
X164549483Y-74094754D01*
X164549482Y-74094753D01*
X164549479Y-74094751D01*
X164454407Y-74039861D01*
X164311028Y-73957080D01*
X164311017Y-73957075D01*
X164056630Y-73851704D01*
X163923649Y-73816072D01*
X163790666Y-73780440D01*
X163790660Y-73780439D01*
X163790655Y-73780438D01*
X163517684Y-73744501D01*
X163517679Y-73744500D01*
X163517674Y-73744500D01*
X162742326Y-73744500D01*
X162742320Y-73744500D01*
X162742315Y-73744501D01*
X162469344Y-73780438D01*
X162469337Y-73780439D01*
X162469334Y-73780440D01*
X162413125Y-73795500D01*
X162203369Y-73851704D01*
X161948982Y-73957075D01*
X161948971Y-73957080D01*
X161710516Y-74094754D01*
X161492073Y-74262370D01*
X161492066Y-74262376D01*
X161297376Y-74457066D01*
X161297370Y-74457073D01*
X161129754Y-74675516D01*
X160992080Y-74913971D01*
X160992075Y-74913982D01*
X160886704Y-75168369D01*
X160815441Y-75434331D01*
X160815438Y-75434344D01*
X160779501Y-75707315D01*
X160779500Y-75707332D01*
X160779500Y-75982667D01*
X160779501Y-75982684D01*
X160815438Y-76255655D01*
X160815439Y-76255660D01*
X160815440Y-76255666D01*
X160815441Y-76255668D01*
X160886704Y-76521630D01*
X160992075Y-76776017D01*
X160992080Y-76776028D01*
X161095024Y-76954331D01*
X161129746Y-77014471D01*
X161129753Y-77014482D01*
X161148961Y-77039515D01*
X161174154Y-77104685D01*
X161160115Y-77173130D01*
X161148961Y-77190485D01*
X161129753Y-77215517D01*
X160992080Y-77453971D01*
X160992075Y-77453982D01*
X160886704Y-77708369D01*
X160815441Y-77974331D01*
X160815438Y-77974344D01*
X160779501Y-78247315D01*
X160779500Y-78247332D01*
X160779500Y-78522667D01*
X160779501Y-78522684D01*
X160815438Y-78795655D01*
X160815439Y-78795660D01*
X160815440Y-78795666D01*
X160815441Y-78795668D01*
X160886704Y-79061630D01*
X160992075Y-79316017D01*
X160992080Y-79316028D01*
X161095024Y-79494331D01*
X161129746Y-79554471D01*
X161129753Y-79554482D01*
X161148961Y-79579515D01*
X161174154Y-79644685D01*
X161160115Y-79713130D01*
X161148961Y-79730485D01*
X161129753Y-79755517D01*
X160992080Y-79993971D01*
X160992075Y-79993982D01*
X160886704Y-80248369D01*
X160815441Y-80514331D01*
X160815438Y-80514344D01*
X160779501Y-80787315D01*
X160779500Y-80787332D01*
X160779500Y-81062667D01*
X160779501Y-81062684D01*
X160815438Y-81335655D01*
X160815439Y-81335660D01*
X160815440Y-81335666D01*
X160815441Y-81335668D01*
X160886704Y-81601630D01*
X160992075Y-81856017D01*
X160992080Y-81856028D01*
X161101580Y-82045686D01*
X161129746Y-82094471D01*
X161129753Y-82094482D01*
X161148961Y-82119515D01*
X161174154Y-82184685D01*
X161160115Y-82253130D01*
X161148961Y-82270485D01*
X161129753Y-82295517D01*
X160992080Y-82533971D01*
X160992075Y-82533982D01*
X160886704Y-82788369D01*
X160815441Y-83054331D01*
X160815438Y-83054344D01*
X160779501Y-83327315D01*
X160779500Y-83327332D01*
X160779500Y-83602667D01*
X160779501Y-83602684D01*
X160815438Y-83875655D01*
X160815439Y-83875660D01*
X160815440Y-83875666D01*
X160815441Y-83875668D01*
X160886704Y-84141630D01*
X160992075Y-84396017D01*
X160992080Y-84396028D01*
X161095024Y-84574331D01*
X161129746Y-84634471D01*
X161129753Y-84634482D01*
X161148961Y-84659515D01*
X161174154Y-84724685D01*
X161160115Y-84793130D01*
X161148961Y-84810485D01*
X161129753Y-84835517D01*
X160992080Y-85073971D01*
X160992075Y-85073982D01*
X160886704Y-85328369D01*
X160815441Y-85594331D01*
X160815438Y-85594344D01*
X160779501Y-85867315D01*
X160779500Y-85867332D01*
X160779500Y-86142667D01*
X160779501Y-86142684D01*
X160815438Y-86415655D01*
X160815439Y-86415660D01*
X160815440Y-86415666D01*
X160815441Y-86415668D01*
X160886704Y-86681630D01*
X160992075Y-86936017D01*
X160992080Y-86936028D01*
X161078379Y-87085500D01*
X161129746Y-87174471D01*
X161129753Y-87174482D01*
X161148961Y-87199515D01*
X161174154Y-87264685D01*
X161160115Y-87333130D01*
X161148961Y-87350485D01*
X161129753Y-87375517D01*
X160992080Y-87613971D01*
X160992075Y-87613982D01*
X160886704Y-87868369D01*
X160815441Y-88134331D01*
X160815438Y-88134344D01*
X160779501Y-88407315D01*
X160779500Y-88407332D01*
X160779500Y-88682667D01*
X160779501Y-88682684D01*
X160815438Y-88955655D01*
X160815439Y-88955660D01*
X160815440Y-88955666D01*
X160839050Y-89043780D01*
X160886704Y-89221630D01*
X160992075Y-89476017D01*
X160992080Y-89476028D01*
X161100318Y-89663500D01*
X161116791Y-89731400D01*
X161093939Y-89797427D01*
X161039017Y-89840618D01*
X160992931Y-89849500D01*
X157962230Y-89849500D01*
X157895191Y-89829815D01*
X157874549Y-89813181D01*
X153878421Y-85817052D01*
X153878414Y-85817046D01*
X153804729Y-85767812D01*
X153804729Y-85767813D01*
X153755491Y-85734913D01*
X153618917Y-85678343D01*
X153618907Y-85678340D01*
X153473920Y-85649500D01*
X153473918Y-85649500D01*
X140526082Y-85649500D01*
X140526076Y-85649500D01*
X140497242Y-85655234D01*
X140497243Y-85655235D01*
X140381093Y-85678339D01*
X140381089Y-85678340D01*
X140312725Y-85706657D01*
X140312726Y-85706658D01*
X140244505Y-85734916D01*
X140244496Y-85734921D01*
X140195269Y-85767813D01*
X140121588Y-85817044D01*
X140121580Y-85817050D01*
X138417047Y-87521584D01*
X138417045Y-87521586D01*
X138387313Y-87566087D01*
X138387311Y-87566090D01*
X138334914Y-87644507D01*
X138278343Y-87781082D01*
X138278340Y-87781092D01*
X138249500Y-87926079D01*
X138249500Y-88960926D01*
X138229815Y-89027965D01*
X138177011Y-89073720D01*
X138172958Y-89075485D01*
X138157628Y-89081835D01*
X138157616Y-89081841D01*
X137941873Y-89206400D01*
X137805486Y-89311053D01*
X137740317Y-89336247D01*
X137671872Y-89322208D01*
X137654514Y-89311053D01*
X137518126Y-89206400D01*
X137302383Y-89081841D01*
X137302371Y-89081835D01*
X137287042Y-89075485D01*
X137232641Y-89031641D01*
X137210579Y-88965346D01*
X137210500Y-88960926D01*
X137210500Y-85386079D01*
X137181659Y-85241092D01*
X137181658Y-85241091D01*
X137181658Y-85241087D01*
X137125084Y-85104505D01*
X137072689Y-85026090D01*
X137072687Y-85026087D01*
X137042954Y-84981586D01*
X137042952Y-84981584D01*
X133923421Y-81862052D01*
X133923420Y-81862051D01*
X133914406Y-81856028D01*
X133819961Y-81792923D01*
X133800495Y-81779916D01*
X133800491Y-81779914D01*
X133800489Y-81779913D01*
X133663917Y-81723343D01*
X133663907Y-81723340D01*
X133518920Y-81694500D01*
X133518918Y-81694500D01*
X117165552Y-81694500D01*
X117098513Y-81674815D01*
X117052758Y-81622011D01*
X117050991Y-81617954D01*
X117044230Y-81601632D01*
X117007923Y-81513979D01*
X116870249Y-81275521D01*
X116851038Y-81250485D01*
X116825845Y-81185318D01*
X116839883Y-81116873D01*
X116851038Y-81099515D01*
X116870249Y-81074479D01*
X117007923Y-80836021D01*
X117113295Y-80581632D01*
X117184560Y-80315666D01*
X117220500Y-80042674D01*
X117220500Y-79767326D01*
X117184560Y-79494334D01*
X117113295Y-79228368D01*
X117042541Y-79057553D01*
X129857560Y-79057553D01*
X147526429Y-79057553D01*
X147526429Y-74829187D01*
X129857560Y-74829187D01*
X129857560Y-79057553D01*
X117042541Y-79057553D01*
X117007923Y-78973979D01*
X117007921Y-78973976D01*
X117007919Y-78973971D01*
X116870253Y-78735528D01*
X116870249Y-78735521D01*
X116851038Y-78710485D01*
X116825845Y-78645318D01*
X116839883Y-78576873D01*
X116851038Y-78559515D01*
X116870249Y-78534479D01*
X117007923Y-78296021D01*
X117113295Y-78041632D01*
X117184560Y-77775666D01*
X117220500Y-77502674D01*
X117220500Y-77227326D01*
X117184560Y-76954334D01*
X117113295Y-76688368D01*
X117044393Y-76522025D01*
X117036924Y-76452556D01*
X117056265Y-76405068D01*
X117090279Y-76354813D01*
X117173013Y-76161612D01*
X117217688Y-75956245D01*
X117220500Y-75909038D01*
X117220500Y-73740962D01*
X117217688Y-73693755D01*
X117173013Y-73488388D01*
X117090279Y-73295187D01*
X116972477Y-73121135D01*
X116823865Y-72972523D01*
X116649813Y-72854721D01*
X116649811Y-72854720D01*
X116649808Y-72854718D01*
X116456613Y-72771987D01*
X116456602Y-72771984D01*
X116251250Y-72727312D01*
X116236492Y-72726433D01*
X116204038Y-72724500D01*
X113535962Y-72724500D01*
X113505416Y-72726319D01*
X113488749Y-72727312D01*
X113283397Y-72771984D01*
X113283386Y-72771987D01*
X113090191Y-72854718D01*
X112916137Y-72972521D01*
X112916132Y-72972525D01*
X112767525Y-73121132D01*
X112767521Y-73121137D01*
X112649718Y-73295191D01*
X112566987Y-73488386D01*
X112566984Y-73488397D01*
X112522312Y-73693749D01*
X112522312Y-73693755D01*
X112519500Y-73740962D01*
X112519500Y-75909038D01*
X112521484Y-75942360D01*
X112522312Y-75956250D01*
X112566984Y-76161602D01*
X112566987Y-76161613D01*
X112649720Y-76354811D01*
X112683735Y-76405068D01*
X112705010Y-76471619D01*
X112695606Y-76522023D01*
X112626710Y-76688352D01*
X112626705Y-76688368D01*
X112555441Y-76954331D01*
X112555438Y-76954344D01*
X112519501Y-77227315D01*
X112519500Y-77227332D01*
X112519500Y-77502667D01*
X112519501Y-77502684D01*
X112555438Y-77775655D01*
X112555439Y-77775660D01*
X112555440Y-77775666D01*
X112555441Y-77775668D01*
X112626704Y-78041630D01*
X112732075Y-78296017D01*
X112732080Y-78296028D01*
X112841580Y-78485686D01*
X112869746Y-78534471D01*
X112869753Y-78534482D01*
X112888961Y-78559515D01*
X112914154Y-78624685D01*
X112900115Y-78693130D01*
X112888961Y-78710485D01*
X112869753Y-78735517D01*
X112732080Y-78973971D01*
X112732075Y-78973982D01*
X112626704Y-79228369D01*
X112555441Y-79494331D01*
X112555438Y-79494344D01*
X112519501Y-79767315D01*
X112519500Y-79767332D01*
X112519500Y-80042667D01*
X112519501Y-80042684D01*
X112555438Y-80315655D01*
X112555439Y-80315660D01*
X112555440Y-80315666D01*
X112555441Y-80315668D01*
X112626704Y-80581630D01*
X112732075Y-80836017D01*
X112732080Y-80836028D01*
X112841580Y-81025686D01*
X112869746Y-81074471D01*
X112869753Y-81074482D01*
X112888961Y-81099515D01*
X112914154Y-81164685D01*
X112900115Y-81233130D01*
X112888961Y-81250485D01*
X112869753Y-81275517D01*
X112732082Y-81513968D01*
X112732078Y-81513976D01*
X112732077Y-81513979D01*
X112695770Y-81601632D01*
X112689009Y-81617954D01*
X112645167Y-81672357D01*
X112578873Y-81694421D01*
X112574448Y-81694500D01*
X112481080Y-81694500D01*
X112336092Y-81723340D01*
X112336082Y-81723343D01*
X112199511Y-81779912D01*
X112199498Y-81779919D01*
X112085609Y-81856019D01*
X112085607Y-81856020D01*
X112076586Y-81862046D01*
X112076582Y-81862050D01*
X110417052Y-83521578D01*
X110417046Y-83521585D01*
X110370691Y-83590961D01*
X110370692Y-83590962D01*
X110334914Y-83644508D01*
X110278343Y-83781082D01*
X110278340Y-83781092D01*
X110249500Y-83926079D01*
X110249500Y-83926082D01*
X110249500Y-94073918D01*
X110249500Y-94073920D01*
X110249499Y-94073920D01*
X109000500Y-94073920D01*
X109000500Y-72124500D01*
X109020185Y-72057461D01*
X109072989Y-72011706D01*
X109124500Y-72000500D01*
X168875500Y-72000500D01*
X168942539Y-72020185D01*
G37*
G04 #@! TD.AperFunction*
M02*
