M48
; DRILL file {KiCad 9.0.2} date 2026-05-27T12:07:36+0200
; FORMAT={-:-/ absolute / metric / decimal}
; #@! TF.CreationDate,2026-05-27T12:07:36+02:00
; #@! TF.GenerationSoftware,Kicad,Pcbnew,9.0.2
; #@! TF.FileFunction,MixedPlating,1,2
FMAT,2
METRIC
; #@! TA.AperFunction,Plated,PTH,ComponentDrill
T1C0.800
; #@! TA.AperFunction,Plated,PTH,ComponentDrill
T2C1.000
%
G90
G05
T1
X133.92Y-91.19
X133.92Y-98.81
X136.46Y-91.19
X136.46Y-98.81
X139.0Y-91.19
X139.0Y-98.81
X141.54Y-91.19
X141.54Y-98.81
X144.08Y-91.19
X144.08Y-98.81
T2
X114.87Y-74.825
X114.87Y-77.365
X114.87Y-79.905
X114.87Y-82.445
X114.87Y-84.985
X114.87Y-87.525
X114.87Y-90.065
X114.87Y-92.605
X114.87Y-97.685
X114.87Y-100.225
X114.87Y-102.765
X114.87Y-105.305
X114.87Y-107.845
X114.87Y-110.385
X120.215Y-111.015
X122.755Y-111.015
X125.295Y-111.015
X127.835Y-111.015
X135.92Y-111.0
X138.46Y-111.0
X141.0Y-111.0
X149.0Y-111.0
X151.54Y-111.0
X163.13Y-73.305
X163.13Y-75.845
X163.13Y-78.385
X163.13Y-80.925
X163.13Y-83.465
X163.13Y-86.005
X163.13Y-88.545
X163.13Y-92.605
X163.13Y-95.145
X163.13Y-97.685
X163.13Y-100.225
X163.13Y-102.765
X163.13Y-105.305
X163.13Y-107.845
X163.13Y-110.385
M30
